<?xml version="1.0" encoding="UTF-8"?>
<!DOCTYPE svg PUBLIC "-//W3C//DTD SVG 1.1//EN" "http://www.w3.org/Graphics/SVG/1.1/DTD/svg11.dtd">
<svg xmlns="http://www.w3.org/2000/svg" version="1.1" width="520px" height="327px" style="shape-rendering:geometricPrecision; text-rendering:geometricPrecision; image-rendering:optimizeQuality; fill-rule:evenodd; clip-rule:evenodd" xmlns:xlink="http://www.w3.org/1999/xlink">
<g><path style="opacity:0.797" fill="#8e3736" d="M 214.5,41.5 C 210.853,34.2054 207.186,26.8721 203.5,19.5C 203.683,17.0637 203.016,14.897 201.5,13C 190.839,12.5002 180.172,12.3335 169.5,12.5C 169.5,14.1667 169.5,15.8333 169.5,17.5C 168.229,15.8914 167.229,14.0581 166.5,12C 178.5,11.3333 190.5,11.3333 202.5,12C 207.186,21.5594 211.186,31.3928 214.5,41.5 Z"/></g>
<g><path style="opacity:0.999" fill="#45454d" d="M 397.5,10.5 C 414.008,11.3123 430.675,12.1457 447.5,13C 443.848,13.4986 440.182,13.6653 436.5,13.5C 436.649,14.552 436.483,15.552 436,16.5C 434.667,16.5 433.333,16.5 432,16.5C 431.213,27.2131 431.38,37.8798 432.5,48.5C 421.162,48.3335 409.828,48.5001 398.5,49C 394.066,49.4181 389.733,50.2515 385.5,51.5C 384.761,51.631 384.094,51.4643 383.5,51C 384.667,50.5 385.5,49.6667 386,48.5C 387.049,49.5171 388.216,49.6838 389.5,49C 387.655,47.872 385.655,47.372 383.5,47.5C 383.811,35.7527 383.478,24.0861 382.5,12.5C 387.405,11.4282 392.405,10.7615 397.5,10.5 Z"/></g>
<g><path style="opacity:1" fill="#48494e" d="M 75.5,12.5 C 81.9872,12.8118 88.6539,12.9785 95.5,13C 94.8333,13.3333 94.1667,13.6667 93.5,14C 95.3453,15.128 97.3453,15.628 99.5,15.5C 99.5,26.1667 99.5,36.8333 99.5,47.5C 100.625,49.0344 109.958,49.3677 127.5,48.5C 141.167,48.5 154.833,48.5 168.5,48.5C 140.67,49.3323 112.67,49.8323 84.5,50C 78.033,52.4386 76.033,56.9386 78.5,63.5C 75.0936,62.1223 71.7603,60.789 68.5,59.5C 71.8384,58.484 73.8384,56.1506 74.5,52.5C 73.8333,52.1667 73.1667,51.8333 72.5,51.5C 73.2421,50.7132 74.0754,50.0465 75,49.5C 75.6667,38.5 75.6667,27.5 75,16.5C 74.3261,15.4216 73.3261,14.7549 72,14.5C 70.2652,15.2259 68.7652,15.2259 67.5,14.5C 69.9052,13.2318 72.5718,12.5651 75.5,12.5 Z"/></g>
<g><path style="opacity:1" fill="#9e3433" d="M 321.5,47.5 C 319.567,46.3583 318.067,44.6917 317,42.5C 316.61,39.8958 315.776,37.5625 314.5,35.5C 311.555,31.2458 309.055,26.5791 307,21.5C 306.764,19.236 306.264,17.0693 305.5,15C 294.267,13.5038 282.934,12.6705 271.5,12.5C 271.5,13.8333 271.5,15.1667 271.5,16.5C 270.661,15.3588 269.994,14.0255 269.5,12.5C 281.82,11.3341 294.153,11.1674 306.5,12C 311.6,23.8046 316.6,35.6379 321.5,47.5 Z"/></g>
<g><path style="opacity:1" fill="#923733" d="M 279.5,75.5 C 274.182,63.8036 268.515,52.4702 262.5,41.5C 262.141,39.629 261.141,38.129 259.5,37C 260.576,35.2739 260.743,33.4406 260,31.5C 257.726,25.3005 255.226,19.3005 252.5,13.5C 241.854,12.5013 231.187,12.168 220.5,12.5C 221.167,16.8333 221.833,21.1667 222.5,25.5C 220.275,21.3771 218.275,17.0437 216.5,12.5C 229.149,11.5009 241.816,11.1676 254.5,11.5C 262.852,32.8633 271.185,54.1966 279.5,75.5 Z"/></g>
<g><path style="opacity:1" fill="#4e4f54" d="M 67.5,14.5 C 68.7652,15.2259 70.2652,15.2259 72,14.5C 73.3261,14.7549 74.3261,15.4216 75,16.5C 75.6667,27.5 75.6667,38.5 75,49.5C 74.0754,50.0465 73.2421,50.7132 72.5,51.5C 73.1667,51.8333 73.8333,52.1667 74.5,52.5C 73.8384,56.1506 71.8384,58.484 68.5,59.5C 58.0201,55.5006 47.6868,51.0006 37.5,46C 36.9152,44.6976 36.2485,43.531 35.5,42.5C 40.8546,27.1482 51.5212,17.8149 67.5,14.5 Z"/></g>
<g><path style="opacity:1" fill="#3b3c44" d="M 158.5,11.5 C 156.143,11.3367 153.81,11.5034 151.5,12C 152.5,12.3333 153.5,12.6667 154.5,13C 153.167,24.3333 153.167,35.6667 154.5,47C 145.324,47.1703 136.324,47.6703 127.5,48.5C 109.958,49.3677 100.625,49.0344 99.5,47.5C 99.5,36.8333 99.5,26.1667 99.5,15.5C 97.3453,15.628 95.3453,15.128 93.5,14C 94.1667,13.6667 94.8333,13.3333 95.5,13C 88.6539,12.9785 81.9872,12.8118 75.5,12.5C 91.259,10.946 107.092,10.2794 123,10.5C 135.005,10.5001 146.838,10.8335 158.5,11.5 Z"/></g>
<g><path style="opacity:1" fill="#2d2f37" d="M 158.5,11.5 C 163.761,23.6943 168.761,36.0276 173.5,48.5C 171.812,48.542 170.146,48.542 168.5,48.5C 154.833,48.5 141.167,48.5 127.5,48.5C 136.324,47.6703 145.324,47.1703 154.5,47C 153.167,35.6667 153.167,24.3333 154.5,13C 153.5,12.6667 152.5,12.3333 151.5,12C 153.81,11.5034 156.143,11.3367 158.5,11.5 Z"/></g>
<g><path style="opacity:1" fill="#35383f" d="M 397.5,10.5 C 434.173,10.1668 470.839,10.5001 507.5,11.5C 498.358,23.8091 489.025,35.9758 479.5,48C 463.837,48.4999 448.17,48.6666 432.5,48.5C 431.38,37.8798 431.213,27.2131 432,16.5C 433.333,16.5 434.667,16.5 436,16.5C 436.483,15.552 436.649,14.552 436.5,13.5C 440.182,13.6653 443.848,13.4986 447.5,13C 430.675,12.1457 414.008,11.3123 397.5,10.5 Z"/></g>
<g><path style="opacity:1" fill="#b6382f" d="M 262.5,41.5 C 262.5,43.5 262.5,45.5 262.5,47.5C 263.5,47.5 264.5,47.5 265.5,47.5C 265.5,49.1667 265.5,50.8333 265.5,52.5C 264.5,52.5 263.5,52.5 262.5,52.5C 263.167,48.5 261.5,46.8333 257.5,47.5C 257.762,46.0222 257.429,44.6888 256.5,43.5C 256.167,44.3333 255.833,45.1667 255.5,46C 257.195,48.584 258.195,51.4173 258.5,54.5C 257.963,57.0353 256.963,59.3686 255.5,61.5C 258.28,65.4525 259.613,64.7859 259.5,59.5C 261.288,59.2148 262.955,59.5481 264.5,60.5C 263.536,67.4419 263.203,74.4419 263.5,81.5C 264.833,81.5 266.167,81.5 267.5,81.5C 267.343,82.8734 267.51,84.2068 268,85.5C 269.666,84.6598 269.833,85.1598 268.5,87C 264.445,89.1272 259.445,90.4605 253.5,91C 252.901,92.6225 252.234,94.1225 251.5,95.5C 251.716,92.5683 251.049,89.9017 249.5,87.5C 249.608,86.5581 249.941,85.7247 250.5,85C 246.272,77.9439 242.272,70.7772 238.5,63.5C 238.663,61.1432 238.497,58.8098 238,56.5C 235.404,51.7064 233.404,46.7064 232,41.5C 230.147,39.0975 228.314,36.7641 226.5,34.5C 224.408,31.9116 223.075,28.9116 222.5,25.5C 221.833,21.1667 221.167,16.8333 220.5,12.5C 231.187,12.168 241.854,12.5013 252.5,13.5C 255.226,19.3005 257.726,25.3005 260,31.5C 260.743,33.4406 260.576,35.2739 259.5,37C 261.141,38.129 262.141,39.629 262.5,41.5 Z"/></g>
<g><path style="opacity:1" fill="#b93b33" d="M 203.5,19.5 C 202.778,19.9175 202.278,20.5842 202,21.5C 199.945,20.505 198.779,21.3384 198.5,24C 199.268,26.1364 199.934,28.3031 200.5,30.5C 199.212,41.1548 199.212,51.8215 200.5,62.5C 202.071,63.3094 203.738,63.6427 205.5,63.5C 205.762,64.9778 205.429,66.3112 204.5,67.5C 202.283,68.7684 200.283,70.2684 198.5,72C 200.684,76.7249 203.018,81.3915 205.5,86C 204.692,87.7058 203.359,88.5391 201.5,88.5C 201.5,91.1667 201.5,93.8333 201.5,96.5C 200.596,95.791 200.263,94.791 200.5,93.5C 198.689,87.5698 197.189,81.5698 196,75.5C 195,74.5 194,73.5 193,72.5C 190.725,66.9553 188.225,61.6219 185.5,56.5C 184.187,50.3939 182.187,44.5606 179.5,39C 179.861,36.551 180.528,34.2177 181.5,32C 179.567,31.2174 178.067,31.7174 177,33.5C 174.971,27.8972 172.471,22.5638 169.5,17.5C 169.5,15.8333 169.5,14.1667 169.5,12.5C 180.172,12.3335 190.839,12.5002 201.5,13C 203.016,14.897 203.683,17.0637 203.5,19.5 Z"/></g>
<g><path style="opacity:1" fill="#505156" d="M 382.5,12.5 C 383.478,24.0861 383.811,35.7527 383.5,47.5C 385.655,47.372 387.655,47.872 389.5,49C 388.216,49.6838 387.049,49.5171 386,48.5C 385.5,49.6667 384.667,50.5 383.5,51C 384.094,51.4643 384.761,51.631 385.5,51.5C 369.726,58.2818 362.06,70.2818 362.5,87.5C 361.732,86.7375 361.232,85.7375 361,84.5C 355.45,85.2053 349.95,86.2053 344.5,87.5C 338.538,74.8047 333.038,61.8047 328,48.5C 327.333,47.1667 327.333,45.8333 328,44.5C 341.638,26.2596 359.804,15.5929 382.5,12.5 Z"/></g>
<g><path style="opacity:0.682" fill="#964440" d="M 285.5,49.5 C 280.655,39.8014 276.322,29.8014 272.5,19.5C 273.117,19.3893 273.617,19.056 274,18.5C 275.903,24.8909 278.57,30.8909 282,36.5C 283.172,40.8407 284.339,45.1741 285.5,49.5 Z"/></g>
<g><path style="opacity:1" fill="#a54740" d="M 169.5,17.5 C 172.471,22.5638 174.971,27.8972 177,33.5C 178.067,31.7174 179.567,31.2174 181.5,32C 180.528,34.2177 179.861,36.551 179.5,39C 182.187,44.5606 184.187,50.3939 185.5,56.5C 179.402,43.8864 174.068,30.8864 169.5,17.5 Z"/></g>
<g><path style="opacity:1" fill="#b6372f" d="M 314.5,35.5 C 314.433,37.4008 314.767,39.2341 315.5,41C 315.167,41.5 314.833,42 314.5,42.5C 313.749,41.624 313.249,40.624 313,39.5C 313.284,42.409 313.117,45.2423 312.5,48C 313.448,48.4828 314.448,48.6495 315.5,48.5C 316.111,59.355 315.445,70.0217 313.5,80.5C 314.817,83.9829 317.151,86.4829 320.5,88C 315.868,89.0721 311.201,90.0721 306.5,91C 304.893,92.049 304.227,93.549 304.5,95.5C 303.662,95.1583 303.328,94.4916 303.5,93.5C 301.207,86.6617 299.707,79.6617 299,72.5C 296.523,66.8802 293.523,61.5468 290,56.5C 289.617,57.056 289.117,57.3893 288.5,57.5C 286.94,55.0465 285.94,52.3798 285.5,49.5C 284.339,45.1741 283.172,40.8407 282,36.5C 278.57,30.8909 275.903,24.8909 274,18.5C 273.617,19.056 273.117,19.3893 272.5,19.5C 271.89,18.609 271.557,17.609 271.5,16.5C 271.5,15.1667 271.5,13.8333 271.5,12.5C 282.934,12.6705 294.267,13.5038 305.5,15C 306.264,17.0693 306.764,19.236 307,21.5C 309.055,26.5791 311.555,31.2458 314.5,35.5 Z"/></g>
<g><path style="opacity:1" fill="#aa2a20" d="M 314.5,35.5 C 315.776,37.5625 316.61,39.8958 317,42.5C 318.067,44.6917 319.567,46.3583 321.5,47.5C 321.5,48.1667 321.5,48.8333 321.5,49.5C 324.019,56.2346 325.685,63.2346 326.5,70.5C 325.462,73.4691 323.962,76.1358 322,78.5C 321.226,82.5146 321.726,83.0146 323.5,80C 324.766,79.6905 325.933,79.1905 327,78.5C 326.805,76.8739 326.805,75.2072 327,73.5C 328.011,74.3366 329.178,74.67 330.5,74.5C 331.517,77.0267 331.517,79.5267 330.5,82C 333.715,84.38 336.382,87.2133 338.5,90.5C 340.871,95.2647 342.871,100.265 344.5,105.5C 340.394,101.809 338.061,97.1425 337.5,91.5C 328.544,91.1445 319.877,90.9778 311.5,91C 308.059,92.3184 306.725,94.8184 307.5,98.5C 306.728,97.3065 305.728,96.3065 304.5,95.5C 304.227,93.549 304.893,92.049 306.5,91C 311.201,90.0721 315.868,89.0721 320.5,88C 317.151,86.4829 314.817,83.9829 313.5,80.5C 315.445,70.0217 316.111,59.355 315.5,48.5C 314.448,48.6495 313.448,48.4828 312.5,48C 313.117,45.2423 313.284,42.409 313,39.5C 313.249,40.624 313.749,41.624 314.5,42.5C 314.833,42 315.167,41.5 315.5,41C 314.767,39.2341 314.433,37.4008 314.5,35.5 Z"/></g>
<g><path style="opacity:1" fill="#a9443f" d="M 226.5,34.5 C 228.314,36.7641 230.147,39.0975 232,41.5C 233.404,46.7064 235.404,51.7064 238,56.5C 238.497,58.8098 238.663,61.1432 238.5,63.5C 233.735,54.221 229.735,44.5544 226.5,34.5 Z"/></g>
<g><path style="opacity:1" fill="#2c2e35" d="M 35.5,42.5 C 36.2485,43.531 36.9152,44.6976 37.5,46C 47.6868,51.0006 58.0201,55.5006 68.5,59.5C 71.7603,60.789 75.0936,62.1223 78.5,63.5C 79.343,65.1733 80.6763,66.34 82.5,67C 87.0853,68.2252 91.752,68.7252 96.5,68.5C 99.8959,70.5951 103.563,72.4284 107.5,74C 112.658,74.719 117.658,76.0524 122.5,78C 136.145,80.6617 149.812,83.1617 163.5,85.5C 167.286,85.9044 167.952,85.0711 165.5,83C 166.951,83.2626 168.284,83.0959 169.5,82.5C 168.67,78.7171 167.67,74.7171 166.5,70.5C 171.141,69.8734 175.807,69.5401 180.5,69.5C 186.112,79.6413 190.779,90.308 194.5,101.5C 194.565,101.938 194.399,102.272 194,102.5C 192.531,99.4162 190.698,96.5829 188.5,94C 186.956,94.4866 185.29,94.9866 183.5,95.5C 183.763,99.6002 183.43,103.6 182.5,107.5C 181.949,103.248 179.616,100.415 175.5,99C 146.167,98.6667 116.833,98.3333 87.5,98C 75.61,98.2415 64.2767,95.9082 53.5,91C 35.9733,79.266 29.9733,63.0993 35.5,42.5 Z"/></g>
<g><path style="opacity:0.808" fill="#933e3d" d="M 185.5,56.5 C 188.225,61.6219 190.725,66.9553 193,72.5C 194,73.5 195,74.5 196,75.5C 197.189,81.5698 198.689,87.5698 200.5,93.5C 194.93,81.4711 189.93,69.1378 185.5,56.5 Z"/></g>
<g><path style="opacity:1" fill="#a92a21" d="M 262.5,41.5 C 268.515,52.4702 274.182,63.8036 279.5,75.5C 286.012,89.8714 292.012,104.538 297.5,119.5C 295.503,116.533 293.503,113.533 291.5,110.5C 290.692,108.577 290.192,106.577 290,104.5C 289,103.833 288,103.167 287,102.5C 285.873,96.8802 282.54,93.5468 277,92.5C 269.533,93.415 262.033,93.7483 254.5,93.5C 253.848,98.5399 255.182,102.873 258.5,106.5C 259.288,109.899 260.288,113.233 261.5,116.5C 263.857,117.403 265.357,119.07 266,121.5C 268.598,129.959 271.598,138.292 275,146.5C 275.495,148.473 275.662,150.473 275.5,152.5C 267.129,133.739 259.129,114.739 251.5,95.5C 252.234,94.1225 252.901,92.6225 253.5,91C 259.445,90.4605 264.445,89.1272 268.5,87C 269.833,85.1598 269.666,84.6598 268,85.5C 267.51,84.2068 267.343,82.8734 267.5,81.5C 266.167,81.5 264.833,81.5 263.5,81.5C 263.203,74.4419 263.536,67.4419 264.5,60.5C 262.955,59.5481 261.288,59.2148 259.5,59.5C 259.613,64.7859 258.28,65.4525 255.5,61.5C 256.963,59.3686 257.963,57.0353 258.5,54.5C 258.195,51.4173 257.195,48.584 255.5,46C 255.833,45.1667 256.167,44.3333 256.5,43.5C 257.429,44.6888 257.762,46.0222 257.5,47.5C 261.5,46.8333 263.167,48.5 262.5,52.5C 263.5,52.5 264.5,52.5 265.5,52.5C 265.5,50.8333 265.5,49.1667 265.5,47.5C 264.5,47.5 263.5,47.5 262.5,47.5C 262.5,45.5 262.5,43.5 262.5,41.5 Z"/></g>
<g><path style="opacity:1" fill="#4a4d51" d="M 463.5,64.5 C 465.969,65.3171 468.635,65.8171 471.5,66C 467.5,66.3333 463.5,66.6667 459.5,67C 460.167,67.3333 460.833,67.6667 461.5,68C 447.17,69.2917 432.837,70.625 418.5,72C 414.464,72.7276 410.464,73.561 406.5,74.5C 406.036,73.3636 405.702,72.3636 405.5,71.5C 406.543,68.9438 408.21,66.7772 410.5,65C 428.164,64.5001 445.83,64.3334 463.5,64.5 Z"/></g>
<g><path style="opacity:1" fill="#9a2b24" d="M 321.5,49.5 C 327.733,62.8476 333.4,76.5143 338.5,90.5C 336.382,87.2133 333.715,84.38 330.5,82C 331.517,79.5267 331.517,77.0267 330.5,74.5C 329.178,74.67 328.011,74.3366 327,73.5C 326.805,75.2072 326.805,76.8739 327,78.5C 325.933,79.1905 324.766,79.6905 323.5,80C 321.726,83.0146 321.226,82.5146 322,78.5C 323.962,76.1358 325.462,73.4691 326.5,70.5C 325.685,63.2346 324.019,56.2346 321.5,49.5 Z"/></g>
<g><path style="opacity:1" fill="#2b2e34" d="M 463.5,64.5 C 476.833,64.5 490.167,64.5 503.5,64.5C 503.5,94.8333 503.5,125.167 503.5,155.5C 466.498,155.667 429.498,155.5 392.5,155C 384.665,154.125 376.999,152.458 369.5,150C 360.741,129.319 352.408,108.486 344.5,87.5C 349.95,86.2053 355.45,85.2053 361,84.5C 361.232,85.7375 361.732,86.7375 362.5,87.5C 366.303,105.125 377.303,114.959 395.5,117C 416.497,117.5 437.497,117.667 458.5,117.5C 458.5,110.833 458.5,104.167 458.5,97.5C 433.824,97.8331 409.158,97.4998 384.5,96.5C 391.177,87.8296 398.177,79.4963 405.5,71.5C 405.702,72.3636 406.036,73.3636 406.5,74.5C 410.464,73.561 414.464,72.7276 418.5,72C 432.837,70.625 447.17,69.2917 461.5,68C 460.833,67.6667 460.167,67.3333 459.5,67C 463.5,66.6667 467.5,66.3333 471.5,66C 468.635,65.8171 465.969,65.3171 463.5,64.5 Z"/></g>
<g><path style="opacity:1" fill="#a93f3b" d="M 303.5,93.5 C 298.129,81.7385 293.129,69.7385 288.5,57.5C 289.117,57.3893 289.617,57.056 290,56.5C 293.523,61.5468 296.523,66.8802 299,72.5C 299.707,79.6617 301.207,86.6617 303.5,93.5 Z"/></g>
<g><path style="opacity:1" fill="#3f4046" d="M 96.5,68.5 C 124.672,68.1687 152.672,68.502 180.5,69.5C 175.807,69.5401 171.141,69.8734 166.5,70.5C 167.67,74.7171 168.67,78.7171 169.5,82.5C 168.284,83.0959 166.951,83.2626 165.5,83C 167.952,85.0711 167.286,85.9044 163.5,85.5C 149.812,83.1617 136.145,80.6617 122.5,78C 117.658,76.0524 112.658,74.719 107.5,74C 103.563,72.4284 99.8959,70.5951 96.5,68.5 Z"/></g>
<g><path style="opacity:1" fill="#a14139" d="M 238.5,63.5 C 242.272,70.7772 246.272,77.9439 250.5,85C 249.941,85.7247 249.608,86.5581 249.5,87.5C 251.049,89.9017 251.716,92.5683 251.5,95.5C 246.648,85.1172 242.314,74.4505 238.5,63.5 Z"/></g>
<g><path style="opacity:1" fill="#9d2921" d="M 214.5,41.5 C 222.328,59.1751 229.661,77.1751 236.5,95.5C 235.142,93.4821 233.475,91.6487 231.5,90C 227.082,89.7923 222.749,89.1256 218.5,88C 220.101,87.7266 221.601,87.2266 223,86.5C 223.333,86.8333 223.667,87.1667 224,87.5C 224.601,85.8632 225.101,84.1966 225.5,82.5C 222.761,80.1092 221.928,77.1092 223,73.5C 223.667,72.1667 224.333,72.1667 225,73.5C 225.186,69.8567 224.186,66.5233 222,63.5C 217.21,65.4965 216.043,64.1631 218.5,59.5C 218.485,57.3659 217.985,55.3659 217,53.5C 215.653,56.1941 214.32,58.8607 213,61.5C 211.588,56.7529 211.588,52.0862 213,47.5C 213.216,49.3839 213.883,51.0506 215,52.5C 215.45,48.8125 215.283,45.1458 214.5,41.5 Z"/></g>
<g><path style="opacity:1" fill="#ad2e25" d="M 203.5,19.5 C 207.186,26.8721 210.853,34.2054 214.5,41.5C 215.283,45.1458 215.45,48.8125 215,52.5C 213.883,51.0506 213.216,49.3839 213,47.5C 211.588,52.0862 211.588,56.7529 213,61.5C 214.32,58.8607 215.653,56.1941 217,53.5C 217.985,55.3659 218.485,57.3659 218.5,59.5C 216.043,64.1631 217.21,65.4965 222,63.5C 224.186,66.5233 225.186,69.8567 225,73.5C 224.333,72.1667 223.667,72.1667 223,73.5C 221.928,77.1092 222.761,80.1092 225.5,82.5C 225.101,84.1966 224.601,85.8632 224,87.5C 223.667,87.1667 223.333,86.8333 223,86.5C 221.601,87.2266 220.101,87.7266 218.5,88C 222.749,89.1256 227.082,89.7923 231.5,90C 233.475,91.6487 235.142,93.4821 236.5,95.5C 238.679,99.2025 240.345,103.203 241.5,107.5C 237.561,103.366 234.561,98.5322 232.5,93C 227.733,91.7888 222.9,90.9555 218,90.5C 212.828,91.7761 207.662,91.7761 202.5,90.5C 204.178,97.2116 205.845,103.878 207.5,110.5C 204.988,106.134 202.988,101.467 201.5,96.5C 201.5,93.8333 201.5,91.1667 201.5,88.5C 203.359,88.5391 204.692,87.7058 205.5,86C 203.018,81.3915 200.684,76.7249 198.5,72C 200.283,70.2684 202.283,68.7684 204.5,67.5C 205.429,66.3112 205.762,64.9778 205.5,63.5C 203.738,63.6427 202.071,63.3094 200.5,62.5C 199.212,51.8215 199.212,41.1548 200.5,30.5C 199.934,28.3031 199.268,26.1364 198.5,24C 198.779,21.3384 199.945,20.505 202,21.5C 202.278,20.5842 202.778,19.9175 203.5,19.5 Z"/></g>
<g><path style="opacity:1" fill="#bb1d12" d="M 241.5,107.5 C 243.679,111.203 245.345,115.203 246.5,119.5C 247.713,126.974 250.213,133.974 254,140.5C 253.543,145.233 255.043,149.067 258.5,152C 258.095,152.945 257.428,153.612 256.5,154C 247.506,154.5 238.506,154.666 229.5,154.5C 228.022,154.762 226.689,154.429 225.5,153.5C 225.058,152.261 224.391,151.261 223.5,150.5C 221.98,148.11 220.98,145.443 220.5,142.5C 220.364,137.733 218.697,133.733 215.5,130.5C 214.373,123.433 211.706,117.1 207.5,111.5C 207.5,111.167 207.5,110.833 207.5,110.5C 205.845,103.878 204.178,97.2116 202.5,90.5C 207.662,91.7761 212.828,91.7761 218,90.5C 222.9,90.9555 227.733,91.7888 232.5,93C 234.561,98.5322 237.561,103.366 241.5,107.5 Z"/></g>
<g><path style="opacity:1" fill="#bb1d11" d="M 297.5,119.5 C 297.85,125.307 299.85,130.307 303.5,134.5C 304.736,136.649 305.736,138.982 306.5,141.5C 306.955,145.957 307.955,150.29 309.5,154.5C 297.913,155.111 286.58,154.444 275.5,152.5C 275.662,150.473 275.495,148.473 275,146.5C 271.598,138.292 268.598,129.959 266,121.5C 265.357,119.07 263.857,117.403 261.5,116.5C 260.288,113.233 259.288,109.899 258.5,106.5C 255.182,102.873 253.848,98.5399 254.5,93.5C 262.033,93.7483 269.533,93.415 277,92.5C 282.54,93.5468 285.873,96.8802 287,102.5C 288,103.167 289,103.833 290,104.5C 290.192,106.577 290.692,108.577 291.5,110.5C 293.503,113.533 295.503,116.533 297.5,119.5 Z"/></g>
<g><path style="opacity:1" fill="#2b2e35" d="M 194.5,101.5 C 200.596,114.866 206.596,128.366 212.5,142C 201.225,151.205 188.225,155.872 173.5,156C 125.501,156.5 77.5012,156.667 29.5,156.5C 29.3505,155.448 29.5172,154.448 30,153.5C 38.8333,142 47.6667,130.5 56.5,119C 94.8333,118.667 133.167,118.333 171.5,118C 178.269,117.731 181.935,114.231 182.5,107.5C 183.43,103.6 183.763,99.6002 183.5,95.5C 185.29,94.9866 186.956,94.4866 188.5,94C 190.698,96.5829 192.531,99.4162 194,102.5C 194.399,102.272 194.565,101.938 194.5,101.5 Z"/></g>
<g><path style="opacity:0.753" fill="#943027" d="M 304.5,95.5 C 305.728,96.3065 306.728,97.3065 307.5,98.5C 311.594,107.553 314.927,116.886 317.5,126.5C 312.601,116.487 308.267,106.154 304.5,95.5 Z"/></g>
<g><path style="opacity:1" fill="#9c2923" d="M 344.5,105.5 C 351.012,119.871 357.012,134.538 362.5,149.5C 362.5,151.5 362.5,153.5 362.5,155.5C 351.5,155.5 340.5,155.5 329.5,155.5C 328.662,155.158 328.328,154.492 328.5,153.5C 339.419,154.477 350.419,154.81 361.5,154.5C 360.336,146.505 357.502,139.172 353,132.5C 352.372,126.917 350.372,121.917 347,117.5C 345.53,113.622 344.697,109.622 344.5,105.5 Z"/></g>
<g><path style="opacity:0.882" fill="#8f2d24" d="M 207.5,111.5 C 211.706,117.1 214.373,123.433 215.5,130.5C 212.597,124.35 209.93,118.016 207.5,111.5 Z"/></g>
<g><path style="opacity:0.859" fill="#8d2a24" d="M 297.5,119.5 C 299.871,124.265 301.871,129.265 303.5,134.5C 299.85,130.307 297.85,125.307 297.5,119.5 Z"/></g>
<g><path style="opacity:1" fill="#bb1d11" d="M 344.5,105.5 C 344.697,109.622 345.53,113.622 347,117.5C 350.372,121.917 352.372,126.917 353,132.5C 357.502,139.172 360.336,146.505 361.5,154.5C 350.419,154.81 339.419,154.477 328.5,153.5C 324.267,144.817 320.6,135.817 317.5,126.5C 314.927,116.886 311.594,107.553 307.5,98.5C 306.725,94.8184 308.059,92.3184 311.5,91C 319.877,90.9778 328.544,91.1445 337.5,91.5C 338.061,97.1425 340.394,101.809 344.5,105.5 Z"/></g>
<g><path style="opacity:0.898" fill="#8f322c" d="M 215.5,130.5 C 218.697,133.733 220.364,137.733 220.5,142.5C 218.321,138.797 216.655,134.797 215.5,130.5 Z"/></g>
<g><path style="opacity:0.992" fill="#9f2721" d="M 246.5,119.5 C 251.346,129.872 255.679,140.539 259.5,151.5C 259.5,152.833 259.5,154.167 259.5,155.5C 249.319,155.827 239.319,155.494 229.5,154.5C 238.506,154.666 247.506,154.5 256.5,154C 257.428,153.612 258.095,152.945 258.5,152C 255.043,149.067 253.543,145.233 254,140.5C 250.213,133.974 247.713,126.974 246.5,119.5 Z"/></g>
<g><path style="opacity:0.997" fill="#9e2b27" d="M 306.5,141.5 C 308.737,145.534 310.404,149.868 311.5,154.5C 300.012,155.495 288.345,155.828 276.5,155.5C 275.596,154.791 275.263,153.791 275.5,152.5C 286.58,154.444 297.913,155.111 309.5,154.5C 307.955,150.29 306.955,145.957 306.5,141.5 Z"/></g>
<g><path style="opacity:0.318" fill="#984543" d="M 223.5,150.5 C 224.391,151.261 225.058,152.261 225.5,153.5C 226.689,154.429 228.022,154.762 229.5,154.5C 239.319,155.494 249.319,155.827 259.5,155.5C 259.5,154.167 259.5,152.833 259.5,151.5C 260.339,152.641 261.006,153.974 261.5,155.5C 249.514,156.666 237.514,156.833 225.5,156C 224.139,154.416 223.472,152.582 223.5,150.5 Z"/></g>
<g><path style="opacity:0.307" fill="#994846" d="M 311.5,154.5 C 312.043,154.56 312.376,154.893 312.5,155.5C 300.34,156.825 288.34,156.825 276.5,155.5C 288.345,155.828 300.012,155.495 311.5,154.5 Z"/></g>
<g><path style="opacity:0.149" fill="#9b4544" d="M 362.5,149.5 C 363.391,151.291 364.391,153.124 365.5,155C 365.167,155.333 364.833,155.667 364.5,156C 352.659,156.826 340.993,156.659 329.5,155.5C 340.5,155.5 351.5,155.5 362.5,155.5C 362.5,153.5 362.5,151.5 362.5,149.5 Z"/></g>
<g><path style="opacity:0.875" fill="#843435" d="M 275.5,171.5 C 277.167,171.5 278.833,171.5 280.5,171.5C 279.981,174.775 277.981,176.108 274.5,175.5C 273.167,175.167 271.833,174.833 270.5,174.5C 271.947,173.065 273.614,172.065 275.5,171.5 Z"/></g>
<g><path style="opacity:0.904" fill="#833031" d="M 326.5,171.5 C 327.833,171.5 329.167,171.5 330.5,171.5C 330.67,172.822 330.337,173.989 329.5,175C 326.854,175.497 324.187,175.664 321.5,175.5C 321.5,174.5 321.5,173.5 321.5,172.5C 323.415,172.784 325.081,172.451 326.5,171.5 Z"/></g>
<g><path style="opacity:0.928" fill="#8b2925" d="M 238.5,182.5 C 241.835,181.865 245.168,180.865 248.5,179.5C 243.544,178.506 238.544,178.173 233.5,178.5C 238.233,177.81 243.066,177.144 248,176.5C 253.281,177.193 253.781,179.027 249.5,182C 245.848,182.499 242.182,182.665 238.5,182.5 Z"/></g>
<g><path style="opacity:1" fill="#b02117" d="M 176.5,184.5 C 177.609,185.29 178.942,185.79 180.5,186C 180.167,186.333 179.833,186.667 179.5,187C 176.174,187.172 172.841,187.005 169.5,186.5C 169.933,179.05 173.933,176.384 181.5,178.5C 184.5,178.833 187.5,179.167 190.5,179.5C 190.167,179.833 189.833,180.167 189.5,180.5C 184.9,181.443 180.233,181.777 175.5,181.5C 175.263,182.791 175.596,183.791 176.5,184.5 Z"/></g>
<g><path style="opacity:1" fill="#a8271f" d="M 260.5,177.5 C 259.167,183.833 259.167,190.167 260.5,196.5C 258.5,196.5 256.5,196.5 254.5,196.5C 253.507,190.832 253.173,184.999 253.5,179C 255.594,177.648 257.927,177.148 260.5,177.5 Z"/></g>
<g><path style="opacity:0.922" fill="#8e2e29" d="M 176.5,184.5 C 175.596,183.791 175.263,182.791 175.5,181.5C 180.233,181.777 184.9,181.443 189.5,180.5C 189.833,180.167 190.167,179.833 190.5,179.5C 187.5,179.167 184.5,178.833 181.5,178.5C 173.933,176.384 169.933,179.05 169.5,186.5C 167.853,183.248 168.52,180.414 171.5,178C 179.188,177.169 186.855,177.335 194.5,178.5C 193.687,179.814 192.687,180.981 191.5,182C 186.067,181.882 181.067,182.715 176.5,184.5 Z"/></g>
<g><path style="opacity:0.91" fill="#7f2b2a" d="M 283.5,177.5 C 284.873,177.343 286.207,177.51 287.5,178C 286.313,179.019 285.313,180.186 284.5,181.5C 280.217,182.492 275.884,182.826 271.5,182.5C 274.977,181.677 278.644,181.177 282.5,181C 284.373,180.047 284.706,178.88 283.5,177.5 Z"/></g>
<g><path style="opacity:0.886" fill="#802727" d="M 332.5,177.5 C 338.146,177.151 338.813,178.651 334.5,182C 330.514,182.499 326.514,182.666 322.5,182.5C 325.398,181.634 329.064,181.134 333.5,181C 333.957,180.586 334.291,180.086 334.5,179.5C 333.757,178.818 333.091,178.151 332.5,177.5 Z"/></g>
<g><path style="opacity:0.914" fill="#a0281f" d="M 283.5,177.5 C 284.706,178.88 284.373,180.047 282.5,181C 278.644,181.177 274.977,181.677 271.5,182.5C 271.5,183.167 271.5,183.833 271.5,184.5C 274.689,185.166 278.023,185.833 281.5,186.5C 278.023,187.167 274.689,187.834 271.5,188.5C 270.402,189.397 270.402,190.23 271.5,191C 275.152,191.499 278.818,191.665 282.5,191.5C 282.5,191.833 282.5,192.167 282.5,192.5C 278.486,192.666 274.486,192.499 270.5,192C 269.167,188.333 269.167,184.667 270.5,181C 274.687,180.929 278.687,180.262 282.5,179C 277.5,178.333 272.5,178.333 267.5,179C 266.31,182.456 265.31,185.956 264.5,189.5C 264.035,185.7 263.702,181.867 263.5,178C 270.158,177.5 276.825,177.334 283.5,177.5 Z"/></g>
<g><path style="opacity:1" fill="#b42016" d="M 282.5,192.5 C 283.404,193.209 283.737,194.209 283.5,195.5C 277.167,195.5 270.833,195.5 264.5,195.5C 264.112,193.359 264.112,191.359 264.5,189.5C 265.31,185.956 266.31,182.456 267.5,179C 272.5,178.333 277.5,178.333 282.5,179C 278.687,180.262 274.687,180.929 270.5,181C 269.167,184.667 269.167,188.333 270.5,192C 274.486,192.499 278.486,192.666 282.5,192.5 Z"/></g>
<g><path style="opacity:1" fill="#b52117" d="M 233.5,178.5 C 238.544,178.173 243.544,178.506 248.5,179.5C 245.168,180.865 241.835,181.865 238.5,182.5C 232.291,183.109 230.958,186.109 234.5,191.5C 238.833,192.167 243.167,192.833 247.5,193.5C 242.533,194.662 237.533,194.829 232.5,194C 228.304,191.019 227.471,187.186 230,182.5C 231.011,181.663 232.178,181.33 233.5,181.5C 233.5,180.5 233.5,179.5 233.5,178.5 Z"/></g>
<g><path style="opacity:1" fill="#99312d" d="M 295.5,182.5 C 296.483,186.298 296.817,190.298 296.5,194.5C 297.833,194.5 299.167,194.5 300.5,194.5C 300.334,190.486 300.501,186.486 301,182.5C 303.355,181.192 305.855,180.192 308.5,179.5C 302.112,178.21 295.778,178.21 289.5,179.5C 294.655,177.822 300.155,176.822 306,176.5C 308.405,177.274 310.905,177.774 313.5,178C 312.257,179.154 311.257,180.488 310.5,182C 308.19,182.497 305.857,182.663 303.5,182.5C 302.686,187.119 302.353,191.786 302.5,196.5C 300.167,196.5 297.833,196.5 295.5,196.5C 295.5,191.833 295.5,187.167 295.5,182.5 Z"/></g>
<g><path style="opacity:0.927" fill="#7c2926" d="M 271.5,184.5 C 276.511,184.334 281.511,184.501 286.5,185C 285.5,186 284.5,187 283.5,188C 279.514,188.499 275.514,188.666 271.5,188.5C 274.689,187.834 278.023,187.167 281.5,186.5C 278.023,185.833 274.689,185.166 271.5,184.5 Z"/></g>
<g><path style="opacity:0.882" fill="#8a2d2b" d="M 322.5,184.5 C 327.179,184.334 331.845,184.501 336.5,185C 335.643,185.689 334.977,186.522 334.5,187.5C 330.167,188.167 325.833,188.833 321.5,189.5C 321.863,190.183 322.196,190.85 322.5,191.5C 321.414,191.38 320.747,190.713 320.5,189.5C 321.547,187.944 322.214,186.277 322.5,184.5 Z"/></g>
<g><path style="opacity:1" fill="#a02b3e" d="M 260.5,177.5 C 261.833,183.833 261.833,190.167 260.5,196.5C 259.167,190.167 259.167,183.833 260.5,177.5 Z"/></g>
<g><path style="opacity:1" fill="#b12113" d="M 295.5,182.5 C 292.753,182.813 290.086,182.48 287.5,181.5C 287.855,180.478 288.522,179.811 289.5,179.5C 295.778,178.21 302.112,178.21 308.5,179.5C 305.855,180.192 303.355,181.192 301,182.5C 300.501,186.486 300.334,190.486 300.5,194.5C 299.167,194.5 297.833,194.5 296.5,194.5C 296.817,190.298 296.483,186.298 295.5,182.5 Z"/></g>
<g><path style="opacity:1" fill="#ad251d" d="M 200.5,194.5 C 198.856,194.19 197.856,193.19 197.5,191.5C 197.252,179.143 203.252,174.643 215.5,178C 223.875,179.826 225.708,184.326 221,191.5C 219.51,192.317 218.01,193.15 216.5,194C 211.177,194.499 205.844,194.666 200.5,194.5 Z M 207.5,181.5 C 211.516,180.9 215.016,181.9 218,184.5C 218.491,189.345 216.158,191.678 211,191.5C 204.655,192.161 202.321,189.495 204,183.5C 205.302,182.915 206.469,182.249 207.5,181.5 Z"/></g>
<g><path style="opacity:1" fill="#952f2c" d="M 200.5,194.5 C 205.844,194.666 211.177,194.499 216.5,194C 218.01,193.15 219.51,192.317 221,191.5C 225.708,184.326 223.875,179.826 215.5,178C 203.252,174.643 197.252,179.143 197.5,191.5C 196.833,190.167 196.167,188.833 195.5,187.5C 195.893,182.193 198.56,178.693 203.5,177C 208.5,176.333 213.5,176.333 218.5,177C 224.795,179.425 226.962,183.925 225,190.5C 221.797,195.578 217.13,197.578 211,196.5C 207.195,196.696 203.695,196.03 200.5,194.5 Z M 207.5,181.5 C 206.469,182.249 205.302,182.915 204,183.5C 202.321,189.495 204.655,192.161 211,191.5C 216.158,191.678 218.491,189.345 218,184.5C 215.016,181.9 211.516,180.9 207.5,181.5 Z"/></g>
<g><path style="opacity:0.929" fill="#972c25" d="M 233.5,178.5 C 233.5,179.5 233.5,180.5 233.5,181.5C 232.178,181.33 231.011,181.663 230,182.5C 227.471,187.186 228.304,191.019 232.5,194C 237.533,194.829 242.533,194.662 247.5,193.5C 243.167,192.833 238.833,192.167 234.5,191.5C 230.958,186.109 232.291,183.109 238.5,182.5C 234.209,183.893 233.209,186.393 235.5,190C 241.088,191.076 246.755,191.909 252.5,192.5C 251.687,193.814 250.687,194.981 249.5,196C 244.167,196.667 238.833,196.667 233.5,196C 226.749,192.41 225.249,187.244 229,180.5C 230.33,179.418 231.83,178.751 233.5,178.5 Z"/></g>
<g><path style="opacity:1" fill="#ad2219" d="M 317.5,177.5 C 322.5,177.5 327.5,177.5 332.5,177.5C 333.091,178.151 333.757,178.818 334.5,179.5C 334.291,180.086 333.957,180.586 333.5,181C 329.064,181.134 325.398,181.634 322.5,182.5C 322.5,183.167 322.5,183.833 322.5,184.5C 322.214,186.277 321.547,187.944 320.5,189.5C 320.747,190.713 321.414,191.38 322.5,191.5C 325.833,191.5 329.167,191.5 332.5,191.5C 332.489,193.017 331.823,194.184 330.5,195C 325.833,195.667 321.167,195.667 316.5,195C 314.907,188.959 315.24,183.126 317.5,177.5 Z"/></g>
<g><path style="opacity:1" fill="#942925" d="M 176.5,184.5 C 181.844,184.334 187.177,184.501 192.5,185C 193.373,186.045 194.373,186.878 195.5,187.5C 196.155,191.355 194.821,194.188 191.5,196C 183.812,196.831 176.145,196.665 168.5,195.5C 169.313,194.186 170.313,193.019 171.5,192C 176.823,191.501 182.156,191.334 187.5,191.5C 188.598,190.603 188.598,189.77 187.5,189C 182.167,188.667 176.833,188.333 171.5,188C 170.584,187.722 169.918,187.222 169.5,186.5C 172.841,187.005 176.174,187.172 179.5,187C 179.833,186.667 180.167,186.333 180.5,186C 178.942,185.79 177.609,185.29 176.5,184.5 Z"/></g>
<g><path style="opacity:1" fill="#b31e16" d="M 187.5,191.5 C 189.814,190.821 190.147,189.488 188.5,187.5C 189.5,186.167 190.5,186.167 191.5,187.5C 192.427,189.622 192.427,191.955 191.5,194.5C 185.132,194.83 178.798,194.496 172.5,193.5C 177.651,192.833 182.651,192.166 187.5,191.5 Z"/></g>
<g><path style="opacity:0.89" fill="#86312c" d="M 282.5,192.5 C 282.5,192.167 282.5,191.833 282.5,191.5C 284.199,191.34 285.866,191.506 287.5,192C 285.772,193.973 283.939,195.806 282,197.5C 276.067,196.852 270.234,196.186 264.5,195.5C 270.833,195.5 277.167,195.5 283.5,195.5C 283.737,194.209 283.404,193.209 282.5,192.5 Z"/></g>
<g><path style="opacity:0.899" fill="#8b2c28" d="M 317.5,177.5 C 315.24,183.126 314.907,188.959 316.5,195C 321.167,195.667 325.833,195.667 330.5,195C 331.823,194.184 332.489,193.017 332.5,191.5C 338.146,191.151 338.813,192.651 334.5,196C 327.842,196.5 321.175,196.666 314.5,196.5C 314.5,190.167 314.5,183.833 314.5,177.5C 315.5,177.5 316.5,177.5 317.5,177.5 Z"/></g>
<g><path style="opacity:0.69" fill="#8e2729" d="M 60.5,226.5 C 67.7264,226.937 74.7264,225.937 81.5,223.5C 82.9174,221.165 83.9174,218.665 84.5,216C 83.6781,213.528 83.0114,211.028 82.5,208.5C 73.9094,204.827 65.2427,204.66 56.5,208C 55.4209,209.859 54.0876,211.359 52.5,212.5C 53.3562,208.146 56.0228,205.646 60.5,205C 66.1667,204.333 71.8333,204.333 77.5,205C 84.6462,207.794 87.1462,212.961 85,220.5C 83.4203,224.216 80.587,226.383 76.5,227C 70.9836,227.817 65.6503,227.651 60.5,226.5 Z"/></g>
<g><path style="opacity:1" fill="#b02117" d="M 96.5,211.5 C 100.413,212.596 104.413,212.762 108.5,212C 109.193,210.316 109.526,208.816 109.5,207.5C 111.023,205.49 112.856,205.156 115,206.5C 115.795,213.58 115.628,220.58 114.5,227.5C 112.833,227.5 111.167,227.5 109.5,227.5C 109.777,224.552 109.444,221.719 108.5,219C 104.413,218.238 100.413,218.404 96.5,219.5C 95.5318,221.607 95.1984,223.941 95.5,226.5C 93.5,226.5 91.5,226.5 89.5,226.5C 89.5,219.5 89.5,212.5 89.5,205.5C 91.5,205.5 93.5,205.5 95.5,205.5C 95.2053,207.735 95.5386,209.735 96.5,211.5 Z"/></g>
<g><path style="opacity:1" fill="#982922" d="M 296.5,221.5 C 292.702,222.483 288.702,222.817 284.5,222.5C 284.5,223.5 284.5,224.5 284.5,225.5C 291.457,226.386 298.457,226.72 305.5,226.5C 305.5,222.5 305.5,218.5 305.5,214.5C 301.167,214.5 296.833,214.5 292.5,214.5C 292.5,215.5 292.5,216.5 292.5,217.5C 294.099,217.232 295.432,217.566 296.5,218.5C 293.482,218.665 290.482,218.498 287.5,218C 288.257,216.488 289.257,215.154 290.5,214C 295.823,213.501 301.156,213.334 306.5,213.5C 306.5,218.167 306.5,222.833 306.5,227.5C 299.159,227.666 291.826,227.5 284.5,227C 282.416,226.303 280.749,225.136 279.5,223.5C 280.833,223.5 282.167,223.5 283.5,223.5C 281.843,219.13 282.176,214.964 284.5,211C 290.272,209.098 296.272,207.931 302.5,207.5C 296.528,206.336 290.528,206.17 284.5,207C 282.678,209.821 280.511,212.321 278,214.5C 277.666,216.847 277.833,219.181 278.5,221.5C 274.483,213.954 276.483,208.454 284.5,205C 291.856,204.169 299.189,204.335 306.5,205.5C 305.469,206.7 304.635,208.034 304,209.5C 299.251,210.305 294.418,210.805 289.5,211C 284.47,212.757 283.47,215.757 286.5,220C 289.726,221.199 293.059,221.699 296.5,221.5 Z"/></g>
<g><path style="opacity:1" fill="#93261e" d="M 411.5,209.5 C 410.069,208.918 408.736,208.085 407.5,207C 399.812,206.169 392.145,206.335 384.5,207.5C 389.802,208.329 395.136,208.829 400.5,209C 401.056,209.383 401.389,209.883 401.5,210.5C 394.8,210.83 388.134,210.497 381.5,209.5C 383.234,205.333 386.401,203.333 391,203.5C 396.083,204.307 401.25,204.807 406.5,205C 409.309,205.312 410.976,206.812 411.5,209.5 Z"/></g>
<g><path style="opacity:1" fill="#9d2b24" d="M 455.5,215.5 C 451.238,213.406 447.738,210.406 445,206.5C 443.56,207.148 442.06,207.481 440.5,207.5C 439.69,209.798 438.856,212.132 438,214.5C 435.672,215.999 433.505,217.666 431.5,219.5C 434.443,214.464 437.777,209.63 441.5,205C 443.833,204.333 446.167,204.333 448.5,205C 451.226,208.299 453.559,211.799 455.5,215.5 Z"/></g>
<g><path style="opacity:0.783" fill="#962d2c" d="M 497.5,204.5 C 500.167,204.5 502.833,204.5 505.5,204.5C 505.5,212.167 505.5,219.833 505.5,227.5C 502.833,227.5 500.167,227.5 497.5,227.5C 497.5,219.833 497.5,212.167 497.5,204.5 Z"/></g>
<g><path style="opacity:1" fill="#b81e14" d="M 499.5,206.5 C 500.822,206.33 501.989,206.663 503,207.5C 503.5,213.825 503.666,220.158 503.5,226.5C 501.833,226.5 500.167,226.5 498.5,226.5C 498.207,219.745 498.54,213.078 499.5,206.5 Z"/></g>
<g><path style="opacity:0.341" fill="#8b2d3d" d="M 114.5,227.5 C 115.628,220.58 115.795,213.58 115,206.5C 112.856,205.156 111.023,205.49 109.5,207.5C 109.461,205.641 110.294,204.308 112,203.5C 113.699,204.406 115.533,204.739 117.5,204.5C 117.5,212.167 117.5,219.833 117.5,227.5C 116.5,227.5 115.5,227.5 114.5,227.5 Z"/></g>
<g><path style="opacity:1" fill="#b71e18" d="M 49.5,220.5 C 49.5,222.5 49.5,224.5 49.5,226.5C 47.8333,226.5 46.1667,226.5 44.5,226.5C 44.3503,221.466 43.017,216.8 40.5,212.5C 39.914,212.709 39.414,213.043 39,213.5C 38.4954,211.482 37.9954,209.482 37.5,207.5C 40.006,204.914 42.506,204.914 45,207.5C 45.2349,212.375 46.7349,216.709 49.5,220.5 Z"/></g>
<g><path style="opacity:1" fill="#b02218" d="M 60.5,226.5 C 53.1609,224.471 50.4943,219.805 52.5,212.5C 54.0876,211.359 55.4209,209.859 56.5,208C 65.2427,204.66 73.9094,204.827 82.5,208.5C 83.0114,211.028 83.6781,213.528 84.5,216C 83.9174,218.665 82.9174,221.165 81.5,223.5C 74.7264,225.937 67.7264,226.937 60.5,226.5 Z M 76.5,211.5 C 79.7287,218.334 77.3954,221.668 69.5,221.5C 66.3606,221.298 63.3606,220.631 60.5,219.5C 58.8299,216.694 59.1632,214.194 61.5,212C 66.4522,210.173 71.4522,210.006 76.5,211.5 Z"/></g>
<g><path style="opacity:0.353" fill="#913a30" d="M 96.5,211.5 C 95.5386,209.735 95.2053,207.735 95.5,205.5C 93.5,205.5 91.5,205.5 89.5,205.5C 89.5,212.5 89.5,219.5 89.5,226.5C 91.5,226.5 93.5,226.5 95.5,226.5C 95.1984,223.941 95.5318,221.607 96.5,219.5C 96.5,222.167 96.5,224.833 96.5,227.5C 93.8333,227.5 91.1667,227.5 88.5,227.5C 88.5,219.833 88.5,212.167 88.5,204.5C 91.1667,204.5 93.8333,204.5 96.5,204.5C 96.5,206.833 96.5,209.167 96.5,211.5 Z"/></g>
<g><path style="opacity:1" fill="#b41f14" d="M 329.5,212.5 C 330.492,212.672 331.158,212.338 331.5,211.5C 332.141,209.958 333.141,208.624 334.5,207.5C 335.493,211.442 336.16,215.442 336.5,219.5C 336.635,221.808 335.969,223.808 334.5,225.5C 333.016,223.718 332.016,221.718 331.5,219.5C 331.158,218.662 330.492,218.328 329.5,218.5C 325.366,217.515 321.032,217.182 316.5,217.5C 316.5,220.5 316.5,223.5 316.5,226.5C 314.856,226.714 313.356,226.38 312,225.5C 310.684,222.312 310.184,218.978 310.5,215.5C 310.5,214.833 310.5,214.167 310.5,213.5C 311.309,211.708 311.809,209.708 312,207.5C 313.11,205.963 314.61,205.297 316.5,205.5C 316.232,208.119 316.565,210.619 317.5,213C 321.689,213.812 325.689,213.645 329.5,212.5 Z"/></g>
<g><path style="opacity:0.999" fill="#a22423" d="M 331.5,219.5 C 332.016,221.718 333.016,223.718 334.5,225.5C 335.969,223.808 336.635,221.808 336.5,219.5C 336.16,215.442 335.493,211.442 334.5,207.5C 333.141,208.624 332.141,209.958 331.5,211.5C 331.015,206.841 332.848,205.508 337,207.5C 337.5,213.825 337.666,220.158 337.5,226.5C 332.094,227.265 330.094,224.931 331.5,219.5 Z"/></g>
<g><path style="opacity:0.78" fill="#892b2f" d="M 486.5,226.5 C 488.099,226.768 489.432,226.434 490.5,225.5C 491.117,225.389 491.617,225.056 492,224.5C 492.5,218.175 492.666,211.842 492.5,205.5C 490.833,205.5 489.167,205.5 487.5,205.5C 487.813,209.042 487.479,212.375 486.5,215.5C 486.5,211.833 486.5,208.167 486.5,204.5C 488.833,204.5 491.167,204.5 493.5,204.5C 493.666,211.841 493.5,219.174 493,226.5C 490.726,227.811 488.56,227.811 486.5,226.5 Z"/></g>
<g><path style="opacity:1" fill="#a6251b" d="M 37.5,207.5 C 37.9954,209.482 38.4954,211.482 39,213.5C 39.414,213.043 39.914,212.709 40.5,212.5C 43.017,216.8 44.3503,221.466 44.5,226.5C 46.1667,226.5 47.8333,226.5 49.5,226.5C 49.5,224.5 49.5,222.5 49.5,220.5C 50.6118,222.599 51.2785,224.933 51.5,227.5C 48.8333,227.5 46.1667,227.5 43.5,227.5C 42.6482,213.966 39.8148,213.3 35,225.5C 32,228.167 29,228.167 26,225.5C 24.3333,222.167 22.6667,218.833 21,215.5C 19.1357,219.263 17.969,223.263 17.5,227.5C 14.8333,227.5 12.1667,227.5 9.5,227.5C 10.9852,219.723 13.3186,212.223 16.5,205C 18.5,204.333 20.5,204.333 22.5,205C 25.2083,209.584 28.0416,214.084 31,218.5C 32.6891,214.44 34.8558,210.773 37.5,207.5 Z"/></g>
<g><path style="opacity:1" fill="#b62016" d="M 152.5,220.5 C 152.357,222.262 152.691,223.929 153.5,225.5C 147.062,226.921 140.728,226.588 134.5,224.5C 134.709,223.914 135.043,223.414 135.5,223C 138.365,222.817 141.031,222.317 143.5,221.5C 142.194,219.184 140.861,216.85 139.5,214.5C 138.292,213.218 136.958,213.218 135.5,214.5C 133.283,217.336 131.616,220.336 130.5,223.5C 129.5,223.5 128.5,223.5 127.5,223.5C 127.5,224.5 127.5,225.5 127.5,226.5C 125.833,226.5 124.167,226.5 122.5,226.5C 122.5,225.5 122.5,224.5 122.5,223.5C 125.413,220.083 128.58,216.749 132,213.5C 132.852,207.946 135.852,205.612 141,206.5C 142.598,209.671 143.932,213.004 145,216.5C 147.734,217.449 150.234,218.783 152.5,220.5 Z"/></g>
<g><path style="opacity:0.923" fill="#8a2a20" d="M 329.5,212.5 C 325.689,213.645 321.689,213.812 317.5,213C 316.565,210.619 316.232,208.119 316.5,205.5C 314.61,205.297 313.11,205.963 312,207.5C 311.809,209.708 311.309,211.708 310.5,213.5C 309.644,210.744 309.644,207.744 310.5,204.5C 312.833,204.5 315.167,204.5 317.5,204.5C 317.232,207.119 317.565,209.619 318.5,212C 322.152,212.499 325.818,212.665 329.5,212.5 Z"/></g>
<g><path style="opacity:1" fill="#b71e13" d="M 475.5,207.5 C 475.351,208.552 475.517,209.552 476,210.5C 479.097,213.621 482.263,216.621 485.5,219.5C 486.478,219.023 487.311,218.357 488,217.5C 488.175,213.789 488.675,210.122 489.5,206.5C 490.086,206.709 490.586,207.043 491,207.5C 491.641,213.528 491.474,219.528 490.5,225.5C 489.127,225.657 487.793,225.49 486.5,225C 483.336,220.187 479.169,216.687 474,214.5C 472.739,214.759 471.739,215.426 471,216.5C 470.503,219.146 470.336,221.813 470.5,224.5C 469.167,224.5 467.833,224.5 466.5,224.5C 466.172,219.125 466.505,213.792 467.5,208.5C 469.91,206.232 472.577,205.899 475.5,207.5 Z"/></g>
<g><path style="opacity:1" fill="#a42923" d="M 179.5,218.5 C 179.103,219.525 178.437,219.692 177.5,219C 176.696,217.229 175.529,215.729 174,214.5C 173.612,217.849 173.779,221.183 174.5,224.5C 172.692,221.564 170.859,218.564 169,215.5C 168,219.167 167,222.833 166,226.5C 163.619,227.435 161.119,227.768 158.5,227.5C 159.386,221.189 161.053,215.189 163.5,209.5C 162.643,215.296 161.809,220.963 161,226.5C 162.314,225.687 163.481,224.687 164.5,223.5C 165.5,220.167 166.5,216.834 167.5,213.5C 168.5,212.833 169.5,212.167 170.5,211.5C 169.691,209.929 169.357,208.262 169.5,206.5C 167.142,206.253 165.142,206.919 163.5,208.5C 164.828,204.746 167.494,203.579 171.5,205C 174.03,209.67 176.697,214.17 179.5,218.5 Z"/></g>
<g><path style="opacity:1" fill="#b42112" d="M 279.5,223.5 C 278.662,223.158 278.328,222.492 278.5,221.5C 277.833,219.181 277.666,216.847 278,214.5C 280.511,212.321 282.678,209.821 284.5,207C 290.528,206.17 296.528,206.336 302.5,207.5C 296.272,207.931 290.272,209.098 284.5,211C 282.176,214.964 281.843,219.13 283.5,223.5C 282.167,223.5 280.833,223.5 279.5,223.5 Z"/></g>
<g><path style="opacity:0.796" fill="#9d393a" d="M 415.5,204.5 C 418.167,204.5 420.833,204.5 423.5,204.5C 424.117,212.128 424.117,219.795 423.5,227.5C 420.833,227.5 418.167,227.5 415.5,227.5C 415.5,219.833 415.5,212.167 415.5,204.5 Z"/></g>
<g><path style="opacity:1" fill="#a52a25" d="M 192.5,226.5 C 194.818,226.182 196.152,224.848 196.5,222.5C 195.517,217.395 193.85,212.561 191.5,208C 189.536,207.376 187.869,207.876 186.5,209.5C 187.913,212.456 189.747,215.123 192,217.5C 192.497,220.146 192.664,222.813 192.5,225.5C 191.365,222.098 190.032,218.765 188.5,215.5C 187.167,216.833 185.833,218.167 184.5,219.5C 184.433,217.599 184.767,215.766 185.5,214C 184.824,212.317 183.824,212.15 182.5,213.5C 183.765,210.475 185.432,207.642 187.5,205C 189.5,204.333 191.5,204.333 193.5,205C 196.129,212.389 198.463,219.889 200.5,227.5C 197.615,227.806 194.948,227.473 192.5,226.5 Z"/></g>
<g><path style="opacity:1" fill="#b71f12" d="M 192.5,226.5 C 192.5,226.167 192.5,225.833 192.5,225.5C 192.664,222.813 192.497,220.146 192,217.5C 189.747,215.123 187.913,212.456 186.5,209.5C 187.869,207.876 189.536,207.376 191.5,208C 193.85,212.561 195.517,217.395 196.5,222.5C 196.152,224.848 194.818,226.182 192.5,226.5 Z"/></g>
<g><path style="opacity:1" fill="#9c2b2a" d="M 371.5,217.5 C 368.623,216.789 366.957,214.956 366.5,212C 365.552,211.517 364.552,211.351 363.5,211.5C 363.633,208.412 362.3,206.412 359.5,205.5C 357.235,206.432 355.235,207.765 353.5,209.5C 355.21,204.817 358.543,203.317 363.5,205C 366.417,209.068 369.083,213.234 371.5,217.5 Z"/></g>
<g><path style="opacity:1" fill="#b12218" d="M 411.5,209.5 C 411.66,211.199 411.494,212.866 411,214.5C 409.267,216.723 407.767,219.056 406.5,221.5C 410.815,225.493 409.815,227.16 403.5,226.5C 403.512,223.858 402.179,222.525 399.5,222.5C 395.833,221.167 392.167,221.167 388.5,222.5C 387.566,223.568 387.232,224.901 387.5,226.5C 385.5,226.5 383.5,226.5 381.5,226.5C 381.5,223.5 381.5,220.5 381.5,217.5C 388.354,217.824 395.021,217.491 401.5,216.5C 405.5,214.5 405.5,212.5 401.5,210.5C 401.389,209.883 401.056,209.383 400.5,209C 395.136,208.829 389.802,208.329 384.5,207.5C 392.145,206.335 399.812,206.169 407.5,207C 408.736,208.085 410.069,208.918 411.5,209.5 Z"/></g>
<g><path style="opacity:0.714" fill="#892623" d="M 76.5,211.5 C 71.4522,210.006 66.4522,210.173 61.5,212C 59.1632,214.194 58.8299,216.694 60.5,219.5C 57.9449,216.518 57.9449,213.351 60.5,210C 64.8333,209.333 69.1667,209.333 73.5,210C 74.7375,210.232 75.7375,210.732 76.5,211.5 Z"/></g>
<g><path style="opacity:1" fill="#a9251c" d="M 211.5,210.5 C 210.833,210.5 210.5,210.833 210.5,211.5C 209.226,212.189 209.226,213.023 210.5,214C 215.155,214.499 219.821,214.666 224.5,214.5C 224.5,215.5 224.5,216.5 224.5,217.5C 219.637,217.181 214.97,217.514 210.5,218.5C 210.414,219.496 210.748,220.329 211.5,221C 217.528,221.17 223.528,221.67 229.5,222.5C 228.812,223.855 227.812,224.855 226.5,225.5C 226.5,224.5 226.5,223.5 226.5,222.5C 221.156,222.666 215.823,222.499 210.5,222C 209.698,218.902 209.031,215.735 208.5,212.5C 209.651,210.675 210.318,208.675 210.5,206.5C 208.5,206.5 206.5,206.5 204.5,206.5C 204.5,213.167 204.5,219.833 204.5,226.5C 203.509,219.687 203.175,212.687 203.5,205.5C 210.5,205.5 217.5,205.5 224.5,205.5C 224.5,206.5 224.5,207.5 224.5,208.5C 219.706,207.903 215.373,208.57 211.5,210.5 Z"/></g>
<g><path style="opacity:0.996" fill="#8d2c2a" d="M 210.5,211.5 C 210.611,212.117 210.944,212.617 211.5,213C 217.167,213.333 222.833,213.667 228.5,214C 227.313,215.019 226.313,216.186 225.5,217.5C 220.544,218.494 215.544,218.827 210.5,218.5C 214.97,217.514 219.637,217.181 224.5,217.5C 224.5,216.5 224.5,215.5 224.5,214.5C 219.821,214.666 215.155,214.499 210.5,214C 209.226,213.023 209.226,212.189 210.5,211.5 Z"/></g>
<g><path style="opacity:0.999" fill="#b5210c" d="M 416.5,206.5 C 417.5,206.5 418.5,206.5 419.5,206.5C 420.791,213.18 420.791,219.846 419.5,226.5C 418.5,226.5 417.5,226.5 416.5,226.5C 416.5,219.833 416.5,213.167 416.5,206.5 Z"/></g>
<g><path style="opacity:0.773" fill="#8b2935" d="M 49.5,220.5 C 46.7349,216.709 45.2349,212.375 45,207.5C 42.506,204.914 40.006,204.914 37.5,207.5C 37.6848,205.11 39.0182,204.11 41.5,204.5C 43.374,204.39 44.874,205.056 46,206.5C 47.4852,211.108 48.6519,215.774 49.5,220.5 Z"/></g>
<g><path style="opacity:1" fill="#b52011" d="M 163.5,209.5 C 163.5,209.167 163.5,208.833 163.5,208.5C 165.142,206.919 167.142,206.253 169.5,206.5C 169.357,208.262 169.691,209.929 170.5,211.5C 169.5,212.167 168.5,212.833 167.5,213.5C 166.5,216.834 165.5,220.167 164.5,223.5C 163.481,224.687 162.314,225.687 161,226.5C 161.809,220.963 162.643,215.296 163.5,209.5 Z"/></g>
<g><path style="opacity:0.875" fill="#80281e" d="M 401.5,216.5 C 395.021,217.491 388.354,217.824 381.5,217.5C 381.5,220.5 381.5,223.5 381.5,226.5C 383.5,226.5 385.5,226.5 387.5,226.5C 387.232,224.901 387.566,223.568 388.5,222.5C 388.5,224.167 388.5,225.833 388.5,227.5C 385.833,227.5 383.167,227.5 380.5,227.5C 380.5,223.833 380.5,220.167 380.5,216.5C 387.5,216.5 394.5,216.5 401.5,216.5 Z"/></g>
<g><path style="opacity:0.886" fill="#992b21" d="M 152.5,220.5 C 150.234,218.783 147.734,217.449 145,216.5C 143.932,213.004 142.598,209.671 141,206.5C 135.852,205.612 132.852,207.946 132,213.5C 128.58,216.749 125.413,220.083 122.5,223.5C 125.645,218.556 128.812,213.556 132,208.5C 135.418,203.605 139.251,202.938 143.5,206.5C 146.553,211.202 149.553,215.869 152.5,220.5 Z"/></g>
<g><path style="opacity:1" fill="#b11c2a" d="M 416.5,206.5 C 418.265,205.539 420.265,205.205 422.5,205.5C 422.5,212.5 422.5,219.5 422.5,226.5C 421.5,226.5 420.5,226.5 419.5,226.5C 420.791,219.846 420.791,213.18 419.5,206.5C 418.5,206.5 417.5,206.5 416.5,206.5 Z"/></g>
<g><path style="opacity:1" fill="#b71d15" d="M 226.5,225.5 C 219.209,226.392 211.876,226.726 204.5,226.5C 204.5,219.833 204.5,213.167 204.5,206.5C 206.5,206.5 208.5,206.5 210.5,206.5C 210.318,208.675 209.651,210.675 208.5,212.5C 209.031,215.735 209.698,218.902 210.5,222C 215.823,222.499 221.156,222.666 226.5,222.5C 226.5,223.5 226.5,224.5 226.5,225.5 Z"/></g>
<g><path style="opacity:0.627" fill="#893035" d="M 329.5,218.5 C 330.492,218.328 331.158,218.662 331.5,219.5C 330.094,224.931 332.094,227.265 337.5,226.5C 337.666,220.158 337.5,213.825 337,207.5C 332.848,205.508 331.015,206.841 331.5,211.5C 331.158,212.338 330.492,212.672 329.5,212.5C 330.388,209.946 330.721,207.279 330.5,204.5C 333.167,204.5 335.833,204.5 338.5,204.5C 338.187,211.755 338.52,218.921 339.5,226C 336.722,227.392 333.722,227.892 330.5,227.5C 330.736,224.391 330.403,221.391 329.5,218.5 Z"/></g>
<g><path style="opacity:0.969" fill="#962b2b" d="M 364.5,221.5 C 363.657,218.484 362.157,215.817 360,213.5C 356.15,217.207 353.317,221.54 351.5,226.5C 347.877,227.758 344.21,227.758 340.5,226.5C 341.188,225.145 342.188,224.145 343.5,223.5C 343.5,224.5 343.5,225.5 343.5,226.5C 345.5,226.5 347.5,226.5 349.5,226.5C 349.687,224.436 350.187,222.436 351,220.5C 354.037,217.961 356.87,215.294 359.5,212.5C 362.104,213.269 363.938,214.936 365,217.5C 365.765,219.066 365.598,220.399 364.5,221.5 Z"/></g>
<g><path style="opacity:1" fill="#a92521" d="M 490.5,225.5 C 491.474,219.528 491.641,213.528 491,207.5C 490.586,207.043 490.086,206.709 489.5,206.5C 488.675,210.122 488.175,213.789 488,217.5C 487.311,218.357 486.478,219.023 485.5,219.5C 482.263,216.621 479.097,213.621 476,210.5C 475.517,209.552 475.351,208.552 475.5,207.5C 479.248,210.137 482.748,213.137 486,216.5C 486.399,216.272 486.565,215.938 486.5,215.5C 487.479,212.375 487.813,209.042 487.5,205.5C 489.167,205.5 490.833,205.5 492.5,205.5C 492.666,211.842 492.5,218.175 492,224.5C 491.617,225.056 491.117,225.389 490.5,225.5 Z"/></g>
<g><path style="opacity:1" fill="#b51f17" d="M 455.5,215.5 C 456.906,215.973 457.573,216.973 457.5,218.5C 457.694,221.33 458.361,223.996 459.5,226.5C 453.5,226.5 447.5,226.5 441.5,226.5C 441.5,225.167 441.5,223.833 441.5,222.5C 443.735,222.795 445.735,222.461 447.5,221.5C 448.552,221.649 449.552,221.483 450.5,221C 448.636,218.312 446.636,215.812 444.5,213.5C 443.5,213.5 442.5,213.5 441.5,213.5C 438.865,217.829 436.198,222.163 433.5,226.5C 431.712,226.785 430.045,226.452 428.5,225.5C 429.95,224.15 430.617,222.484 430.5,220.5C 430.5,219.833 430.833,219.5 431.5,219.5C 433.505,217.666 435.672,215.999 438,214.5C 438.856,212.132 439.69,209.798 440.5,207.5C 442.06,207.481 443.56,207.148 445,206.5C 447.738,210.406 451.238,213.406 455.5,215.5 Z"/></g>
<g><path style="opacity:1" fill="#b32116" d="M 184.5,219.5 C 183.526,224.477 180.526,226.81 175.5,226.5C 175.167,225.833 174.833,225.167 174.5,224.5C 173.779,221.183 173.612,217.849 174,214.5C 175.529,215.729 176.696,217.229 177.5,219C 178.437,219.692 179.103,219.525 179.5,218.5C 180.263,216.632 181.263,214.965 182.5,213.5C 183.824,212.15 184.824,212.317 185.5,214C 184.767,215.766 184.433,217.599 184.5,219.5 Z"/></g>
<g><path style="opacity:0.906" fill="#952b2b" d="M 444.5,213.5 C 441.722,218.118 438.722,222.618 435.5,227C 432.167,227.667 428.833,227.667 425.5,227C 427.066,224.674 428.732,222.508 430.5,220.5C 430.617,222.484 429.95,224.15 428.5,225.5C 430.045,226.452 431.712,226.785 433.5,226.5C 436.198,222.163 438.865,217.829 441.5,213.5C 442.5,213.5 443.5,213.5 444.5,213.5 Z"/></g>
<g><path style="opacity:1" fill="#b62015" d="M 371.5,217.5 C 371.343,218.873 371.51,220.207 372,221.5C 374.172,222.509 375.338,224.176 375.5,226.5C 368.825,226.666 362.158,226.5 355.5,226C 357.041,224.629 358.375,223.129 359.5,221.5C 361.167,221.5 362.833,221.5 364.5,221.5C 365.598,220.399 365.765,219.066 365,217.5C 363.938,214.936 362.104,213.269 359.5,212.5C 356.87,215.294 354.037,217.961 351,220.5C 350.187,222.436 349.687,224.436 349.5,226.5C 347.5,226.5 345.5,226.5 343.5,226.5C 343.5,225.5 343.5,224.5 343.5,223.5C 346.345,218.473 349.679,213.806 353.5,209.5C 355.235,207.765 357.235,206.432 359.5,205.5C 362.3,206.412 363.633,208.412 363.5,211.5C 364.552,211.351 365.552,211.517 366.5,212C 366.957,214.956 368.623,216.789 371.5,217.5 Z M 364.5,221.5 C 362.833,221.5 361.167,221.5 359.5,221.5C 358.127,221.343 356.793,221.51 355.5,222C 354.267,223.667 352.933,225.167 351.5,226.5C 353.317,221.54 356.15,217.207 360,213.5C 362.157,215.817 363.657,218.484 364.5,221.5 Z"/></g>
<g><path style="opacity:0.431" fill="#993035" d="M 139.5,214.5 C 138.761,214.369 138.094,214.536 137.5,215C 135.302,218.023 132.969,220.856 130.5,223.5C 131.616,220.336 133.283,217.336 135.5,214.5C 136.958,213.218 138.292,213.218 139.5,214.5 Z"/></g>
<g><path style="opacity:1" fill="#b02017" d="M 296.5,221.5 C 299.167,220.5 299.167,219.5 296.5,218.5C 295.432,217.566 294.099,217.232 292.5,217.5C 292.5,216.5 292.5,215.5 292.5,214.5C 296.833,214.5 301.167,214.5 305.5,214.5C 305.5,218.5 305.5,222.5 305.5,226.5C 298.457,226.72 291.457,226.386 284.5,225.5C 284.5,224.5 284.5,223.5 284.5,222.5C 288.702,222.817 292.702,222.483 296.5,221.5 Z"/></g>
<g><path style="opacity:0.576" fill="#922e2d" d="M 411.5,209.5 C 413.571,214.373 412.238,218.206 407.5,221C 409.973,222.561 411.973,224.561 413.5,227C 409.833,227.667 406.167,227.667 402.5,227C 401.614,225.385 400.614,223.885 399.5,222.5C 402.179,222.525 403.512,223.858 403.5,226.5C 409.815,227.16 410.815,225.493 406.5,221.5C 407.767,219.056 409.267,216.723 411,214.5C 411.494,212.866 411.66,211.199 411.5,209.5 Z"/></g>
<g><path style="opacity:1" fill="#a12c28" d="M 475.5,207.5 C 472.577,205.899 469.91,206.232 467.5,208.5C 466.505,213.792 466.172,219.125 466.5,224.5C 467.833,224.5 469.167,224.5 470.5,224.5C 470.336,221.813 470.503,219.146 471,216.5C 471.739,215.426 472.739,214.759 474,214.5C 479.169,216.687 483.336,220.187 486.5,225C 487.793,225.49 489.127,225.657 490.5,225.5C 489.432,226.434 488.099,226.768 486.5,226.5C 482.811,222.813 478.811,219.48 474.5,216.5C 473.511,220.107 473.177,223.774 473.5,227.5C 470.833,227.5 468.167,227.5 465.5,227.5C 465.334,220.825 465.5,214.158 466,207.5C 468.908,202.783 472.074,202.783 475.5,207.5 Z"/></g>
<g><path style="opacity:0.741" fill="#93363c" d="M 188.5,215.5 C 187.163,219.673 185.163,223.507 182.5,227C 179.961,227.796 177.628,227.629 175.5,226.5C 180.526,226.81 183.526,224.477 184.5,219.5C 185.833,218.167 187.167,216.833 188.5,215.5 Z"/></g>
<g><path style="opacity:0.882" fill="#862721" d="M 122.5,223.5 C 122.5,224.5 122.5,225.5 122.5,226.5C 124.167,226.5 125.833,226.5 127.5,226.5C 127.5,225.5 127.5,224.5 127.5,223.5C 128.5,223.5 129.5,223.5 130.5,223.5C 130.461,224.583 130.127,225.583 129.5,226.5C 126.216,227.657 122.882,227.824 119.5,227C 120.163,225.482 121.163,224.315 122.5,223.5 Z"/></g>
<g><path style="opacity:0.839" fill="#8f201e" d="M 152.5,220.5 C 154.148,222.429 155.815,224.429 157.5,226.5C 148.518,227.665 139.518,227.832 130.5,227C 133.298,221.932 137.632,220.099 143.5,221.5C 141.031,222.317 138.365,222.817 135.5,223C 135.043,223.414 134.709,223.914 134.5,224.5C 140.728,226.588 147.062,226.921 153.5,225.5C 152.691,223.929 152.357,222.262 152.5,220.5 Z"/></g>
<g><path style="opacity:0.889" fill="#8e2c22" d="M 211.5,210.5 C 215.373,208.57 219.706,207.903 224.5,208.5C 224.5,207.5 224.5,206.5 224.5,205.5C 217.5,205.5 210.5,205.5 203.5,205.5C 203.175,212.687 203.509,219.687 204.5,226.5C 211.876,226.726 219.209,226.392 226.5,225.5C 218.903,227.467 210.903,228.134 202.5,227.5C 202.5,219.833 202.5,212.167 202.5,204.5C 211.506,204.334 220.506,204.5 229.5,205C 228.547,206.955 227.213,208.622 225.5,210C 220.845,210.499 216.179,210.666 211.5,210.5 Z"/></g>
<g><path style="opacity:0.927" fill="#97302c" d="M 240.5,221.5 C 238.803,219.695 237.97,217.361 238,214.5C 236.301,213.594 234.467,213.261 232.5,213.5C 232.5,217.833 232.5,222.167 232.5,226.5C 241.567,227.323 250.234,225.99 258.5,222.5C 258.67,220.152 259.003,217.818 259.5,215.5C 258.626,212.924 257.626,210.424 256.5,208C 252.755,206.955 248.921,206.455 245,206.5C 241.645,206.375 238.478,206.875 235.5,208C 240.167,208.333 244.833,208.667 249.5,209C 252.215,209.875 253.548,211.708 253.5,214.5C 252.573,212.424 250.907,211.257 248.5,211C 244.909,210.211 241.409,210.378 238,211.5C 235.931,210.736 233.764,210.236 231.5,210C 232.833,208.333 234.167,206.667 235.5,205C 241.5,204.333 247.5,204.333 253.5,205C 261.73,209.166 263.563,215.332 259,223.5C 257.2,225.317 255.034,226.484 252.5,227C 245.508,227.5 238.508,227.666 231.5,227.5C 231.5,222.5 231.5,217.5 231.5,212.5C 234.167,212.5 236.833,212.5 239.5,212.5C 239.264,215.609 239.597,218.609 240.5,221.5 Z"/></g>
<g><path style="opacity:1" fill="#b42017" d="M 240.5,221.5 C 244.273,221.737 247.94,221.237 251.5,220C 252.861,218.416 253.528,216.582 253.5,214.5C 253.548,211.708 252.215,209.875 249.5,209C 244.833,208.667 240.167,208.333 235.5,208C 238.478,206.875 241.645,206.375 245,206.5C 248.921,206.455 252.755,206.955 256.5,208C 257.626,210.424 258.626,212.924 259.5,215.5C 259.003,217.818 258.67,220.152 258.5,222.5C 250.234,225.99 241.567,227.323 232.5,226.5C 232.5,222.167 232.5,217.833 232.5,213.5C 234.467,213.261 236.301,213.594 238,214.5C 237.97,217.361 238.803,219.695 240.5,221.5 Z"/></g>
<g><path style="opacity:0.933" fill="#8d3129" d="M 310.5,215.5 C 310.184,218.978 310.684,222.312 312,225.5C 313.356,226.38 314.856,226.714 316.5,226.5C 316.5,223.5 316.5,220.5 316.5,217.5C 321.032,217.182 325.366,217.515 329.5,218.5C 325.818,218.335 322.152,218.501 318.5,219C 318.725,221.742 318.392,224.576 317.5,227.5C 315.167,227.5 312.833,227.5 310.5,227.5C 309.356,223.352 309.356,219.352 310.5,215.5 Z"/></g>
<g><path style="opacity:0.863" fill="#91221f" d="M 371.5,217.5 C 374.161,220.171 376.494,223.171 378.5,226.5C 369.342,227.822 360.342,227.822 351.5,226.5C 352.933,225.167 354.267,223.667 355.5,222C 356.793,221.51 358.127,221.343 359.5,221.5C 358.375,223.129 357.041,224.629 355.5,226C 362.158,226.5 368.825,226.666 375.5,226.5C 375.338,224.176 374.172,222.509 372,221.5C 371.51,220.207 371.343,218.873 371.5,217.5 Z"/></g>
<g><path style="opacity:0.853" fill="#8b201d" d="M 457.5,218.5 C 459.829,220.841 461.829,223.508 463.5,226.5C 454.833,227.833 446.167,227.833 437.5,226.5C 439.549,222.427 442.882,220.761 447.5,221.5C 445.735,222.461 443.735,222.795 441.5,222.5C 441.5,223.833 441.5,225.167 441.5,226.5C 447.5,226.5 453.5,226.5 459.5,226.5C 458.361,223.996 457.694,221.33 457.5,218.5 Z"/></g>
<g><path style="opacity:0.482" fill="#636363" d="M 298.5,301.5 C 303.639,302.941 303.639,303.941 298.5,304.5C 298.5,303.5 298.5,302.5 298.5,301.5 Z"/></g>
<g><path style="opacity:0.855" fill="#585859" d="M 356.5,305.5 C 354.088,305.306 353.088,303.973 353.5,301.5C 356.954,301.267 357.954,302.6 356.5,305.5 Z"/></g>
<g><path style="opacity:0.004" fill="#fefffe" d="M 295.5,307.5 C 296.833,308.167 296.833,308.167 295.5,307.5 Z"/></g>
<g><path style="opacity:1" fill="#52585c" d="M 381.5,303.5 C 384.381,303.698 386.381,305.198 387.5,308C 385.773,311.276 385.106,314.776 385.5,318.5C 384.167,318.5 382.833,318.5 381.5,318.5C 381.928,314.725 381.261,311.225 379.5,308C 380.707,306.7 381.374,305.2 381.5,303.5 Z"/></g>
<g><path style="opacity:1" fill="#5a5b5f" d="M 156.5,306.5 C 157.833,306.5 159.167,306.5 160.5,306.5C 161.5,315.833 162.5,315.833 163.5,306.5C 164.552,306.351 165.552,306.517 166.5,307C 168.803,311.682 170.137,311.515 170.5,306.5C 171.833,306.5 173.167,306.5 174.5,306.5C 173.185,311.094 172.185,315.761 171.5,320.5C 170.167,320.5 168.833,320.5 167.5,320.5C 166.642,313.43 165.309,313.097 163.5,319.5C 162.311,320.429 160.978,320.762 159.5,320.5C 158.815,315.761 157.815,311.094 156.5,306.5 Z"/></g>
<g><path style="opacity:0.98" fill="#505255" d="M 131.5,306.5 C 132.822,306.33 133.989,306.663 135,307.5C 136.725,314.039 137.892,313.706 138.5,306.5C 139.822,306.33 140.989,306.663 142,307.5C 143.446,315.415 144.613,315.415 145.5,307.5C 146.955,306.255 148.289,306.422 149.5,308C 148.012,311.952 146.679,315.952 145.5,320C 144.365,320.749 143.365,320.583 142.5,319.5C 141.764,317.459 140.931,315.459 140,313.5C 139.333,315.5 138.667,317.5 138,319.5C 136.989,320.337 135.822,320.67 134.5,320.5C 133.5,315.833 132.5,311.167 131.5,306.5 Z"/></g>
<g><path style="opacity:1" fill="#5e5d63" d="M 241.5,301.5 C 242.833,301.5 244.167,301.5 245.5,301.5C 245.338,303.527 245.505,305.527 246,307.5C 249.943,305.749 252.277,307.082 253,311.5C 253.667,313.833 253.667,316.167 253,318.5C 252.29,319.973 251.124,320.64 249.5,320.5C 249.665,317.15 249.498,313.817 249,310.5C 248,309.167 247,309.167 246,310.5C 245.502,313.817 245.335,317.15 245.5,320.5C 244.167,320.5 242.833,320.5 241.5,320.5C 241.5,314.167 241.5,307.833 241.5,301.5 Z"/></g>
<g><path style="opacity:0.682" fill="#56575a" d="M 282.5,306.5 C 285.322,307.157 287.989,307.49 290.5,307.5C 289.653,308.845 288.487,309.845 287,310.5C 286.667,313.5 286.333,316.5 286,319.5C 285,318.5 284,317.5 283,316.5C 282.502,313.183 282.335,309.85 282.5,306.5 Z"/></g>
<g><path style="opacity:0.882" fill="#565557" d="M 332.5,306.5 C 334.722,307.386 336.888,307.386 339,306.5C 340.473,306.903 341.806,307.57 343,308.5C 343.499,312.486 343.666,316.486 343.5,320.5C 342.167,320.5 340.833,320.5 339.5,320.5C 339.5,316.833 339.5,313.167 339.5,309.5C 338.178,309.33 337.011,309.663 336,310.5C 335.502,313.817 335.335,317.15 335.5,320.5C 334.127,320.657 332.793,320.49 331.5,320C 332.467,315.599 332.8,311.099 332.5,306.5 Z"/></g>
<g><path style="opacity:0.973" fill="#53565d" d="M 298.5,306.5 C 299.833,306.5 301.167,306.5 302.5,306.5C 302.666,310.846 302.499,315.179 302,319.5C 300.989,320.337 299.822,320.67 298.5,320.5C 298.5,315.833 298.5,311.167 298.5,306.5 Z"/></g>
<g><path style="opacity:0.871" fill="#555a5e" d="M 356.5,305.5 C 357.487,310.305 357.821,315.305 357.5,320.5C 356.167,320.5 354.833,320.5 353.5,320.5C 353.5,315.833 353.5,311.167 353.5,306.5C 354.791,306.737 355.791,306.404 356.5,305.5 Z"/></g>
<g><path style="opacity:0.716" fill="#484848" d="M 416.5,312.5 C 445.514,312.254 474.514,312.754 503.5,314C 474.53,315.432 445.53,315.932 416.5,315.5C 416.5,314.5 416.5,313.5 416.5,312.5 Z"/></g>
<g><path style="opacity:0.769" fill="#444444" d="M 39.5,312.5 C 66.8333,312.5 94.1667,312.5 121.5,312.5C 121.5,313.5 121.5,314.5 121.5,315.5C 88.8316,315.667 56.165,315.5 23.5,315C 20.1667,314.667 16.8333,314.333 13.5,314C 22.343,313.83 31.0097,313.33 39.5,312.5 Z"/></g>
<g><path style="opacity:0.871" fill="#56555b" d="M 265.5,306.5 C 268.157,306.162 270.49,306.829 272.5,308.5C 273.433,312.429 273.766,316.429 273.5,320.5C 270.269,319.819 266.936,319.652 263.5,320C 261.964,318.401 261.464,316.567 262,314.5C 264.243,313.029 266.743,312.029 269.5,311.5C 269.192,310.692 268.692,310.025 268,309.5C 266.416,310.861 264.582,311.528 262.5,311.5C 262.31,309.041 263.31,307.374 265.5,306.5 Z M 266.5,314.5 C 268.355,314.272 269.188,314.939 269,316.5C 266.192,317.86 265.359,317.193 266.5,314.5 Z"/></g>
<g><path style="opacity:0.839" fill="#505258" d="M 396.5,306.5 C 398.722,307.386 400.888,307.386 403,306.5C 404.473,306.903 405.806,307.57 407,308.5C 407.499,312.486 407.666,316.486 407.5,320.5C 406.167,320.5 404.833,320.5 403.5,320.5C 403.665,317.15 403.498,313.817 403,310.5C 402,309.167 401,309.167 400,310.5C 399.502,313.817 399.335,317.15 399.5,320.5C 398.167,320.5 396.833,320.5 395.5,320.5C 395.226,315.737 395.559,311.07 396.5,306.5 Z"/></g>
<g><path style="opacity:0.822" fill="#59595c" d="M 181.5,306.5 C 185.664,306.772 187.497,309.106 187,313.5C 187.667,311.5 188.333,309.5 189,307.5C 190.011,306.663 191.178,306.33 192.5,306.5C 193.524,315.785 194.524,315.785 195.5,306.5C 196.833,306.5 198.167,306.5 199.5,306.5C 198.503,311.161 197.503,315.827 196.5,320.5C 195.167,320.5 193.833,320.5 192.5,320.5C 191.849,312.669 190.515,312.502 188.5,320C 187.216,320.684 186.049,320.517 185,319.5C 183.982,315.093 182.815,310.759 181.5,306.5 Z"/></g>
<g><path style="opacity:0.859" fill="#535457" d="M 222.5,306.5 C 225.935,307.368 229.269,307.368 232.5,306.5C 232.666,311.511 232.499,316.511 232,321.5C 229.839,325.124 226.672,326.291 222.5,325C 221.549,324.282 221.383,323.449 222,322.5C 223.645,322.307 225.479,322.14 227.5,322C 227.957,321.586 228.291,321.086 228.5,320.5C 226.014,320.919 223.514,320.252 221,318.5C 220.081,314.269 220.581,310.269 222.5,306.5 Z M 225.5,309.5 C 227.89,309.685 228.89,311.018 228.5,313.5C 226.908,318.748 225.241,318.581 223.5,313C 224.305,311.887 224.972,310.721 225.5,309.5 Z"/></g>
<g><path style="opacity:1" fill="#59585b" d="M 314.5,306.5 C 317.365,306.055 319.865,306.722 322,308.5C 322.392,312.528 322.892,316.528 323.5,320.5C 319.729,320.304 315.896,319.971 312,319.5C 311.192,317.421 311.359,315.421 312.5,313.5C 314.535,312.959 316.535,312.292 318.5,311.5C 316.195,311.308 313.862,310.974 311.5,310.5C 312.172,308.84 313.172,307.507 314.5,306.5 Z M 315.5,314.5 C 318.957,314.667 319.29,315.667 316.5,317.5C 315.614,316.675 315.281,315.675 315.5,314.5 Z"/></g>
</svg>
