<?xml version="1.0" encoding="UTF-8"?>
<!DOCTYPE svg PUBLIC "-//W3C//DTD SVG 1.1//EN" "http://www.w3.org/Graphics/SVG/1.1/DTD/svg11.dtd">
<svg xmlns="http://www.w3.org/2000/svg" version="1.1" width="800px" height="244px" style="shape-rendering:geometricPrecision; text-rendering:geometricPrecision; image-rendering:optimizeQuality; fill-rule:evenodd; clip-rule:evenodd" xmlns:xlink="http://www.w3.org/1999/xlink">
<g><path style="opacity:1" fill="#4d4e53" d="M 216.5,1.5 C 209.167,1.5 201.833,1.5 194.5,1.5C 181.833,1.5 169.167,1.5 156.5,1.5C 144.786,1.13949 133.119,1.63949 121.5,3C 123.167,3.33333 124.833,3.66667 126.5,4C 124.063,5.37473 121.397,5.87473 118.5,5.5C 118.5,7.5 118.5,9.5 118.5,11.5C 120.167,11.5 121.833,11.5 123.5,11.5C 123.5,28.8333 123.5,46.1667 123.5,63.5C 115.981,63.175 108.648,63.5084 101.5,64.5C 101.167,64.5 100.833,64.5 100.5,64.5C 97.7508,64.7261 95.0841,64.3928 92.5,63.5C 91.6143,64.325 91.281,65.325 91.5,66.5C 88.8599,64.9922 86.5266,65.3256 84.5,67.5C 83.5004,48.8452 83.1671,30.1786 83.5,11.5C 82.1667,11.5 80.8333,11.5 79.5,11.5C 79.5,10.1667 79.5,8.83333 79.5,7.5C 78.448,7.64945 77.448,7.48278 76.5,7C 80.459,7.26753 84.459,6.60086 88.5,5C 86.6183,4.80192 84.9516,4.30192 83.5,3.5C 89.7118,3.47655 95.7118,2.80988 101.5,1.5C 139.993,0.234111 178.326,0.234111 216.5,1.5 Z"/></g>
<g><path style="opacity:1" fill="#404146" d="M 156.5,1.5 C 156.881,2.93112 157.881,3.76445 159.5,4C 156.854,4.49742 154.187,4.66409 151.5,4.5C 151.5,6.83333 151.5,9.16667 151.5,11.5C 153.5,11.5 155.5,11.5 157.5,11.5C 157.5,28.8333 157.5,46.1667 157.5,63.5C 146.167,63.5 134.833,63.5 123.5,63.5C 123.5,46.1667 123.5,28.8333 123.5,11.5C 121.833,11.5 120.167,11.5 118.5,11.5C 118.5,9.5 118.5,7.5 118.5,5.5C 121.397,5.87473 124.063,5.37473 126.5,4C 124.833,3.66667 123.167,3.33333 121.5,3C 133.119,1.63949 144.786,1.13949 156.5,1.5 Z"/></g>
<g><path style="opacity:1" fill="#3a3b40" d="M 156.5,1.5 C 169.167,1.5 181.833,1.5 194.5,1.5C 191.023,2.3227 187.356,2.8227 183.5,3C 196.769,3.51538 196.769,4.34872 183.5,5.5C 183.5,7.5 183.5,9.5 183.5,11.5C 185.5,11.5 187.5,11.5 189.5,11.5C 189.5,28.8333 189.5,46.1667 189.5,63.5C 178.833,63.5 168.167,63.5 157.5,63.5C 157.5,46.1667 157.5,28.8333 157.5,11.5C 155.5,11.5 153.5,11.5 151.5,11.5C 151.5,9.16667 151.5,6.83333 151.5,4.5C 154.187,4.66409 156.854,4.49742 159.5,4C 157.881,3.76445 156.881,2.93112 156.5,1.5 Z"/></g>
<g><path style="opacity:0.505" fill="#dd908b" d="M 291.5,2.5 C 272.164,2.33338 252.83,2.50005 233.5,3C 234.423,5.04083 234.756,7.2075 234.5,9.5C 232.415,7.31553 231.415,4.64886 231.5,1.5C 251.674,1.16955 271.674,1.50288 291.5,2.5 Z"/></g>
<g><path style="opacity:0.441" fill="#e19b95" d="M 376.5,3.5 C 356.402,2.17465 336.402,2.17465 316.5,3.5C 315.662,3.84171 315.328,4.50838 315.5,5.5C 314.751,4.46905 314.085,3.30238 313.5,2C 324,1.83333 334.5,1.66667 345,1.5C 355.855,1.50125 366.355,2.16792 376.5,3.5 Z"/></g>
<g><path style="opacity:0.459" fill="#de9992" d="M 464.5,3.5 C 444.402,2.17465 424.402,2.17465 404.5,3.5C 405.92,6.26128 406.587,9.26128 406.5,12.5C 404.853,9.27062 403.186,5.93729 401.5,2.5C 412,2.16667 422.5,1.83333 433,1.5C 443.855,1.50125 454.355,2.16792 464.5,3.5 Z"/></g>
<g><path style="opacity:1" fill="#49494f" d="M 651.5,1.5 C 647.018,2.3255 642.351,2.8255 637.5,3C 639.991,3.62595 639.991,4.45928 637.5,5.5C 642.682,6.77601 642.682,7.44268 637.5,7.5C 637.5,24.1667 637.5,40.8333 637.5,57.5C 635.473,57.3379 633.473,57.5045 631.5,58C 638.167,58.3333 644.833,58.6667 651.5,59C 646.167,59.3333 640.833,59.6667 635.5,60C 637.301,60.3173 637.634,60.984 636.5,62C 653.497,62.4999 670.497,62.6666 687.5,62.5C 698.833,62.5 710.167,62.5 721.5,62.5C 731.5,62.5 741.5,62.5 751.5,62.5C 707.335,63.3327 663.002,63.8327 618.5,64C 613.145,64.7714 607.812,65.6048 602.5,66.5C 601.078,66.2914 599.745,65.7914 598.5,65C 599.82,55.3952 600.487,45.5619 600.5,35.5C 600.494,25.5921 600.161,15.7587 599.5,6C 602.14,5.161 604.473,5.661 606.5,7.5C 607.5,7 608.5,6.5 609.5,6C 606.211,5.11839 602.877,4.45172 599.5,4C 603.077,3.74276 606.744,3.07609 610.5,2C 624.163,1.5001 637.829,1.33343 651.5,1.5 Z"/></g>
<g><path style="opacity:1" fill="#404147" d="M 651.5,1.5 C 665.833,1.5 680.167,1.5 694.5,1.5C 690.353,2.32474 686.019,2.82474 681.5,3C 684.5,3.33333 687.5,3.66667 690.5,4C 687.833,4.33333 685.167,4.66667 682.5,5C 684.134,5.49351 685.801,5.66018 687.5,5.5C 687.5,7.5 687.5,9.5 687.5,11.5C 685.5,11.5 683.5,11.5 681.5,11.5C 681.5,12.8333 681.5,14.1667 681.5,15.5C 683.5,15.5 685.5,15.5 687.5,15.5C 687.5,31.1667 687.5,46.8333 687.5,62.5C 670.497,62.6666 653.497,62.4999 636.5,62C 637.634,60.984 637.301,60.3173 635.5,60C 640.833,59.6667 646.167,59.3333 651.5,59C 644.833,58.6667 638.167,58.3333 631.5,58C 633.473,57.5045 635.473,57.3379 637.5,57.5C 637.5,40.8333 637.5,24.1667 637.5,7.5C 642.682,7.44268 642.682,6.77601 637.5,5.5C 639.991,4.45928 639.991,3.62595 637.5,3C 642.351,2.8255 647.018,2.3255 651.5,1.5 Z"/></g>
<g><path style="opacity:1" fill="#3a3b42" d="M 694.5,1.5 C 708.167,1.5 721.833,1.5 735.5,1.5C 735.5,2.5 735.5,3.5 735.5,4.5C 732.813,4.33591 730.146,4.50258 727.5,5C 727.833,5.33333 728.167,5.66667 728.5,6C 725.5,6.33333 722.5,6.66667 719.5,7C 720.448,7.48278 721.448,7.64945 722.5,7.5C 722.5,9.5 722.5,11.5 722.5,13.5C 731.833,14.1667 731.833,14.8333 722.5,15.5C 723.138,29.2467 722.471,42.7467 720.5,56C 723.833,56.3333 727.167,56.6667 730.5,57C 726.833,57.3333 723.167,57.6667 719.5,58C 721.795,59.0616 722.461,60.5616 721.5,62.5C 710.167,62.5 698.833,62.5 687.5,62.5C 687.5,46.8333 687.5,31.1667 687.5,15.5C 685.5,15.5 683.5,15.5 681.5,15.5C 681.5,14.1667 681.5,12.8333 681.5,11.5C 683.5,11.5 685.5,11.5 687.5,11.5C 687.5,9.5 687.5,7.5 687.5,5.5C 685.801,5.66018 684.134,5.49351 682.5,5C 685.167,4.66667 687.833,4.33333 690.5,4C 687.5,3.66667 684.5,3.33333 681.5,3C 686.019,2.82474 690.353,2.32474 694.5,1.5 Z"/></g>
<g><path style="opacity:1" fill="#34353c" d="M 735.5,1.5 C 755.169,1.33338 774.836,1.50005 794.5,2C 795.337,3.01127 795.67,4.17793 795.5,5.5C 792.882,10.4131 789.548,14.7465 785.5,18.5C 782.154,18.435 779.654,19.7683 778,22.5C 777.282,21.5494 776.449,21.3828 775.5,22C 776.559,24.7101 775.559,26.5435 772.5,27.5C 771.807,31.2179 770.307,34.5512 768,37.5C 767.667,37.1667 767.333,36.8333 767,36.5C 766.837,38.676 766.004,40.5093 764.5,42C 765.252,42.6708 765.586,43.5041 765.5,44.5C 764.189,47.1354 762.522,49.4687 760.5,51.5C 759.167,51.5 757.833,51.5 756.5,51.5C 756.116,53.9294 755.449,56.2627 754.5,58.5C 754.262,60.4044 753.262,61.7377 751.5,62.5C 741.5,62.5 731.5,62.5 721.5,62.5C 722.461,60.5616 721.795,59.0616 719.5,58C 723.167,57.6667 726.833,57.3333 730.5,57C 727.167,56.6667 723.833,56.3333 720.5,56C 722.471,42.7467 723.138,29.2467 722.5,15.5C 731.833,14.8333 731.833,14.1667 722.5,13.5C 722.5,11.5 722.5,9.5 722.5,7.5C 721.448,7.64945 720.448,7.48278 719.5,7C 722.5,6.66667 725.5,6.33333 728.5,6C 728.167,5.66667 727.833,5.33333 727.5,5C 730.146,4.50258 732.813,4.33591 735.5,4.5C 735.5,3.5 735.5,2.5 735.5,1.5 Z"/></g>
<g><path style="opacity:0.976" fill="#838385" d="M 101.5,1.5 C 95.7118,2.80988 89.7118,3.47655 83.5,3.5C 89.2737,2.05434 95.2737,1.38767 101.5,1.5 Z"/></g>
<g><path style="opacity:1" fill="#ac4a3f" d="M 404.5,3.5 C 424.402,2.17465 444.402,2.17465 464.5,3.5C 465.674,4.51369 466.34,5.84702 466.5,7.5C 465.833,7.5 465.167,7.5 464.5,7.5C 464.489,5.98261 463.823,4.81595 462.5,4C 443.17,3.50005 423.836,3.33338 404.5,3.5 Z"/></g>
<g><path style="opacity:1" fill="#b2483e" d="M 316.5,3.5 C 336.402,2.17465 356.402,2.17465 376.5,3.5C 380.012,10.538 383.012,17.8714 385.5,25.5C 384.068,23.6729 382.401,22.0063 380.5,20.5C 379.534,18.604 379.201,16.604 379.5,14.5C 377.897,14.6882 376.563,14.1882 375.5,13C 378.318,6.39417 376.318,3.7275 369.5,5C 372.941,5.83567 373.108,6.669 370,7.5C 368.393,7.23076 367.226,6.39742 366.5,5C 357.173,4.50021 347.839,4.33355 338.5,4.5C 331.352,3.50837 324.019,3.17503 316.5,3.5 Z"/></g>
<g><path style="opacity:1" fill="#4f5055" d="M 83.5,3.5 C 84.9516,4.30192 86.6183,4.80192 88.5,5C 84.459,6.60086 80.459,7.26753 76.5,7C 77.448,7.48278 78.448,7.64945 79.5,7.5C 79.5,8.83333 79.5,10.1667 79.5,11.5C 80.8333,11.5 82.1667,11.5 83.5,11.5C 83.1671,30.1786 83.5004,48.8452 84.5,67.5C 86.5266,65.3256 88.8599,64.9922 91.5,66.5C 83.1628,72.1517 80.8295,79.8183 84.5,89.5C 83.603,88.4019 82.7697,88.4019 82,89.5C 80.2691,87.3834 78.1024,85.8834 75.5,85C 63.7094,80.9299 52.3761,76.0965 41.5,70.5C 44.7181,70.3491 45.0515,69.5158 42.5,68C 43.9603,66.418 45.627,65.0847 47.5,64C 44.9703,64.796 42.3037,65.1293 39.5,65C 40.7659,64.6905 41.9326,64.1905 43,63.5C 43.1667,56.8333 43.3333,50.1667 43.5,43.5C 43.3093,34.7073 42.6427,26.2073 41.5,18C 43.6079,17.6401 45.6079,16.9734 47.5,16C 48.2524,15.3292 48.5858,14.4959 48.5,13.5C 59.3768,7.76773 71.0435,4.4344 83.5,3.5 Z"/></g>
<g><path style="opacity:1" fill="#4f5055" d="M 799.5,0.5 C 799.5,0.833333 799.5,1.16667 799.5,1.5C 798.527,3.13924 797.194,4.47257 795.5,5.5C 795.67,4.17793 795.337,3.01127 794.5,2C 774.836,1.50005 755.169,1.33338 735.5,1.5C 721.833,1.5 708.167,1.5 694.5,1.5C 680.167,1.5 665.833,1.5 651.5,1.5C 637.829,1.33343 624.163,1.5001 610.5,2C 606.744,3.07609 603.077,3.74276 599.5,4C 602.877,4.45172 606.211,5.11839 609.5,6C 608.5,6.5 607.5,7 606.5,7.5C 604.473,5.661 602.14,5.161 599.5,6C 600.161,15.7587 600.494,25.5921 600.5,35.5C 600.487,45.5619 599.82,55.3952 598.5,65C 599.745,65.7914 601.078,66.2914 602.5,66.5C 587.218,71.0653 574.718,79.732 565,92.5C 558.034,103.823 555.2,116.157 556.5,129.5C 555.539,127.735 555.205,125.735 555.5,123.5C 548.826,124.557 542.159,125.724 535.5,127C 532.524,127.705 529.858,128.871 527.5,130.5C 526.662,130.158 526.328,129.492 526.5,128.5C 530.146,126.533 534.146,125.366 538.5,125C 536.167,124.667 533.833,124.333 531.5,124C 536.123,123.042 540.79,122.375 545.5,122C 543.167,121.667 540.833,121.333 538.5,121C 539.5,120.667 540.5,120.333 541.5,120C 539.513,90.3912 538.846,60.5579 539.5,30.5C 540.822,30.33 541.989,30.6634 543,31.5C 543.333,60.8333 543.667,90.1667 544,119.5C 544.171,87.2617 544.671,55.0951 545.5,23C 544.177,22.1841 543.511,21.0174 543.5,19.5C 563.754,8.80978 585.42,2.64312 608.5,1C 672.166,0.500005 735.832,0.333338 799.5,0.5 Z"/></g>
<g><path style="opacity:1" fill="#33353b" d="M 194.5,1.5 C 201.833,1.5 209.167,1.5 216.5,1.5C 225.88,20.9432 234.213,40.9432 241.5,61.5C 224.532,63.486 207.199,64.1527 189.5,63.5C 189.5,46.1667 189.5,28.8333 189.5,11.5C 187.5,11.5 185.5,11.5 183.5,11.5C 183.5,9.5 183.5,7.5 183.5,5.5C 196.769,4.34872 196.769,3.51538 183.5,3C 187.356,2.8227 191.023,2.3227 194.5,1.5 Z"/></g>
<g><path style="opacity:1" fill="#be4036" d="M 404.5,3.5 C 423.836,3.33338 443.17,3.50005 462.5,4C 463.823,4.81595 464.489,5.98261 464.5,7.5C 458.661,8.63554 452.828,8.63554 447,7.5C 441.942,7.59166 437.108,8.59166 432.5,10.5C 436.5,11.1667 440.5,11.8333 444.5,12.5C 441.702,13.9689 438.702,14.8022 435.5,15C 437.473,15.4955 439.473,15.6621 441.5,15.5C 441.818,31.881 441.485,48.2143 440.5,64.5C 441.077,66.5499 442.41,67.5499 444.5,67.5C 444.531,70.9588 445.198,74.2921 446.5,77.5C 445.332,79.2174 443.665,79.8841 441.5,79.5C 441.753,81.8273 441.086,83.8273 439.5,85.5C 440.246,86.7362 440.579,88.0695 440.5,89.5C 439.609,88.8902 438.609,88.5569 437.5,88.5C 437.5,87.8333 437.5,87.1667 437.5,86.5C 436.983,82.7783 436.15,79.1117 435,75.5C 433.141,72.2542 431.475,68.9209 430,65.5C 429.329,64.7476 428.496,64.4142 427.5,64.5C 427.5,63.8333 427.5,63.1667 427.5,62.5C 425.306,55.9164 423.306,49.2498 421.5,42.5C 418.85,38.8255 416.516,35.1588 414.5,31.5C 414.66,29.8008 414.494,28.1341 414,26.5C 411.793,22.7496 410.127,18.7496 409,14.5C 408.329,13.7476 407.496,13.4142 406.5,13.5C 406.5,13.1667 406.5,12.8333 406.5,12.5C 406.587,9.26128 405.92,6.26128 404.5,3.5 Z"/></g>
<g><path style="opacity:1" fill="#bc3f35" d="M 291.5,2.5 C 293.774,7.38291 295.774,12.3829 297.5,17.5C 296.883,17.6107 296.383,17.944 296,18.5C 294.097,15.8294 293.264,12.8294 293.5,9.5C 292.5,9.5 291.5,9.5 290.5,9.5C 290.764,4.42699 288.931,3.42699 285,6.5C 275.267,3.52322 265.433,3.02322 255.5,5C 264.489,6.09368 273.489,7.09368 282.5,8C 278.94,9.23674 275.273,9.73674 271.5,9.5C 271.5,10.8333 271.5,12.1667 271.5,13.5C 275.449,13.6932 275.449,14.1932 271.5,15C 273.473,15.4955 275.473,15.6621 277.5,15.5C 278.097,43.5975 277.431,71.5975 275.5,99.5C 273.488,98.0778 271.488,96.7445 269.5,95.5C 269.66,93.8008 269.494,92.1341 269,90.5C 266.57,85.3016 264.403,79.9683 262.5,74.5C 260.685,70.5212 258.685,66.8545 256.5,63.5C 256.089,57.8541 254.755,52.5208 252.5,47.5C 251.5,47.5 250.5,47.5 249.5,47.5C 249.5,47.1667 249.5,46.8333 249.5,46.5C 247.907,38.5553 245.407,30.8886 242,23.5C 241.329,22.7476 240.496,22.4142 239.5,22.5C 237.263,18.4656 235.596,14.1323 234.5,9.5C 234.756,7.2075 234.423,5.04083 233.5,3C 252.83,2.50005 272.164,2.33338 291.5,2.5 Z"/></g>
<g><path style="opacity:1" fill="#bc3e34" d="M 316.5,3.5 C 324.019,3.17503 331.352,3.50837 338.5,4.5C 335.813,4.33591 333.146,4.50258 330.5,5C 332.134,5.49351 333.801,5.66018 335.5,5.5C 335.52,7.14297 334.853,8.4763 333.5,9.5C 334.025,10.1924 334.692,10.6924 335.5,11C 342.856,11.1687 350.189,11.6687 357.5,12.5C 355.631,13.6236 353.631,14.4569 351.5,15C 354.817,15.4983 358.15,15.665 361.5,15.5C 361.178,37.2123 361.511,58.879 362.5,80.5C 362.167,81.1667 361.833,81.8333 361.5,82.5C 359.167,83.1667 356.833,83.8333 354.5,84.5C 353.147,85.5237 352.48,86.857 352.5,88.5C 349.018,82.1909 346.018,75.5243 343.5,68.5C 342.511,66.4138 341.178,64.7471 339.5,63.5C 338.27,61.7028 337.604,59.7028 337.5,57.5C 335.696,50.2162 333.029,43.2162 329.5,36.5C 329.043,35.7025 328.376,35.3691 327.5,35.5C 327.5,35.1667 327.5,34.8333 327.5,34.5C 327.322,31.7835 326.822,29.1168 326,26.5C 322.323,18.9499 319.156,11.2832 316.5,3.5 Z"/></g>
<g><path style="opacity:1" fill="#cb7b72" d="M 406.5,13.5 C 407.496,13.4142 408.329,13.7476 409,14.5C 410.127,18.7496 411.793,22.7496 414,26.5C 414.494,28.1341 414.66,29.8008 414.5,31.5C 411.322,25.8043 408.656,19.8043 406.5,13.5 Z"/></g>
<g><path style="opacity:1" fill="#b6382e" d="M 464.5,7.5 C 465.167,7.5 465.833,7.5 466.5,7.5C 466.5,7.83333 466.5,8.16667 466.5,8.5C 466.5,10.8333 466.5,13.1667 466.5,15.5C 464.676,21.2749 463.343,27.2749 462.5,33.5C 463.175,60.1477 463.842,86.8144 464.5,113.5C 462.041,119.602 460.374,125.935 459.5,132.5C 459.5,134.833 459.5,137.167 459.5,139.5C 457.935,137.491 456.935,135.157 456.5,132.5C 456.923,130.219 456.256,128.552 454.5,127.5C 452.561,120.019 450.228,112.685 447.5,105.5C 446.735,104.388 445.735,103.721 444.5,103.5C 443.592,98.7317 442.259,94.0651 440.5,89.5C 440.579,88.0695 440.246,86.7362 439.5,85.5C 441.086,83.8273 441.753,81.8273 441.5,79.5C 443.665,79.8841 445.332,79.2174 446.5,77.5C 445.198,74.2921 444.531,70.9588 444.5,67.5C 442.41,67.5499 441.077,66.5499 440.5,64.5C 441.485,48.2143 441.818,31.881 441.5,15.5C 439.473,15.6621 437.473,15.4955 435.5,15C 438.702,14.8022 441.702,13.9689 444.5,12.5C 440.5,11.8333 436.5,11.1667 432.5,10.5C 437.108,8.59166 441.942,7.59166 447,7.5C 452.828,8.63554 458.661,8.63554 464.5,7.5 Z"/></g>
<g><path style="opacity:1" fill="#cc7d75" d="M 316.5,3.5 C 319.156,11.2832 322.323,18.9499 326,26.5C 326.822,29.1168 327.322,31.7835 327.5,34.5C 323.129,25.0713 319.129,15.4046 315.5,5.5C 315.328,4.50838 315.662,3.84171 316.5,3.5 Z"/></g>
<g><path style="opacity:1" fill="#56575c" d="M 48.5,13.5 C 48.5858,14.4959 48.2524,15.3292 47.5,16C 45.6079,16.9734 43.6079,17.6401 41.5,18C 42.6427,26.2073 43.3093,34.7073 43.5,43.5C 43.3333,50.1667 43.1667,56.8333 43,63.5C 41.9326,64.1905 40.7659,64.6905 39.5,65C 42.3037,65.1293 44.9703,64.796 47.5,64C 45.627,65.0847 43.9603,66.418 42.5,68C 45.0515,69.5158 44.7181,70.3491 41.5,70.5C 31.7031,66.3501 22.0364,62.0167 12.5,57.5C 16.7704,36.5582 28.7704,21.8916 48.5,13.5 Z"/></g>
<g><path style="opacity:1" fill="#45464c" d="M 785.5,18.5 C 779.185,27.4758 772.519,36.1425 765.5,44.5C 765.586,43.5041 765.252,42.6708 764.5,42C 766.004,40.5093 766.837,38.676 767,36.5C 767.333,36.8333 767.667,37.1667 768,37.5C 770.307,34.5512 771.807,31.2179 772.5,27.5C 775.559,26.5435 776.559,24.7101 775.5,22C 776.449,21.3828 777.282,21.5494 778,22.5C 779.654,19.7683 782.154,18.435 785.5,18.5 Z"/></g>
<g><path style="opacity:1" fill="#c6736e" d="M 239.5,22.5 C 240.496,22.4142 241.329,22.7476 242,23.5C 245.407,30.8886 247.907,38.5553 249.5,46.5C 245.655,38.7972 242.321,30.7972 239.5,22.5 Z"/></g>
<g><path style="opacity:1" fill="#56575c" d="M 543.5,19.5 C 543.511,21.0174 544.177,22.1841 545.5,23C 544.671,55.0951 544.171,87.2617 544,119.5C 543.667,90.1667 543.333,60.8333 543,31.5C 541.989,30.6634 540.822,30.33 539.5,30.5C 538.846,60.5579 539.513,90.3912 541.5,120C 540.5,120.333 539.5,120.667 538.5,121C 540.833,121.333 543.167,121.667 545.5,122C 540.79,122.375 536.123,123.042 531.5,124C 533.833,124.333 536.167,124.667 538.5,125C 534.146,125.366 530.146,126.533 526.5,128.5C 516.9,105.887 507.566,83.054 498.5,60C 509.593,42.0691 524.593,28.5691 543.5,19.5 Z"/></g>
<g><path style="opacity:1" fill="#b5362d" d="M 338.5,4.5 C 347.839,4.33355 357.173,4.50021 366.5,5C 367.226,6.39742 368.393,7.23076 370,7.5C 373.108,6.669 372.941,5.83567 369.5,5C 376.318,3.7275 378.318,6.39417 375.5,13C 376.563,14.1882 377.897,14.6882 379.5,14.5C 379.201,16.604 379.534,18.604 380.5,20.5C 382.401,22.0063 384.068,23.6729 385.5,25.5C 391.069,38.3184 396.403,51.3184 401.5,64.5C 399.589,64.4257 398.422,63.4257 398,61.5C 396.951,62.5171 395.784,62.6838 394.5,62C 395.226,59.8458 395.393,57.3458 395,54.5C 393.956,53.3774 393.29,52.0441 393,50.5C 392.935,52.8833 392.102,53.55 390.5,52.5C 389.548,50.9547 389.215,49.288 389.5,47.5C 388.5,47.5 387.5,47.5 386.5,47.5C 386.5,49.5 386.5,51.5 386.5,53.5C 387.5,53.5 388.5,53.5 389.5,53.5C 389.82,56.8984 389.487,60.2317 388.5,63.5C 387.914,63.2907 387.414,62.9574 387,62.5C 386.823,85.5428 386.323,108.543 385.5,131.5C 387.5,132.5 389.5,133.5 391.5,134.5C 385.259,136.007 378.925,136.674 372.5,136.5C 370.17,134.458 369.004,131.792 369,128.5C 368.329,127.748 367.496,127.414 366.5,127.5C 366.536,124.179 365.869,121.012 364.5,118C 361.381,111.034 358.381,104.034 355.5,97C 357.389,93.4759 356.389,91.6426 352.5,91.5C 352.5,90.5 352.5,89.5 352.5,88.5C 352.48,86.857 353.147,85.5237 354.5,84.5C 356.833,83.8333 359.167,83.1667 361.5,82.5C 361.833,81.8333 362.167,81.1667 362.5,80.5C 361.511,58.879 361.178,37.2123 361.5,15.5C 358.15,15.665 354.817,15.4983 351.5,15C 353.631,14.4569 355.631,13.6236 357.5,12.5C 350.189,11.6687 342.856,11.1687 335.5,11C 334.692,10.6924 334.025,10.1924 333.5,9.5C 334.853,8.4763 335.52,7.14297 335.5,5.5C 333.801,5.66018 332.134,5.49351 330.5,5C 333.146,4.50258 335.813,4.33591 338.5,4.5 Z"/></g>
<g><path style="opacity:1" fill="#b3352b" d="M 297.5,17.5 C 305.028,35.4147 312.361,53.4147 319.5,71.5C 316.909,70.7457 315.076,69.079 314,66.5C 313.333,67.8333 312.667,69.1667 312,70.5C 311.667,68.1667 311.333,65.8333 311,63.5C 309.795,62.9288 308.628,62.2621 307.5,61.5C 308.506,60.6043 308.506,59.9377 307.5,59.5C 306.585,60.3279 305.919,61.3279 305.5,62.5C 307.457,65.568 307.957,68.9013 307,72.5C 305.837,70.7148 305.17,68.7148 305,66.5C 303.919,69.9684 304.585,72.9684 307,75.5C 307.5,92.8301 307.667,110.163 307.5,127.5C 306.5,127.5 305.5,127.5 304.5,127.5C 304.5,129.167 304.5,130.833 304.5,132.5C 306.103,132.312 307.437,132.812 308.5,134C 304.32,133.683 300.154,133.517 296,133.5C 295.167,133.667 294.333,133.833 293.5,134C 295.058,134.21 296.391,134.71 297.5,135.5C 294.5,135.5 291.5,135.5 288.5,135.5C 289.91,138.95 290.576,142.616 290.5,146.5C 288.935,144.491 287.935,142.157 287.5,139.5C 285.174,131.51 282.84,123.51 280.5,115.5C 279.5,115.5 278.5,115.5 277.5,115.5C 277.5,115.167 277.5,114.833 277.5,114.5C 277.698,109.25 277.031,104.25 275.5,99.5C 277.431,71.5975 278.097,43.5975 277.5,15.5C 275.473,15.6621 273.473,15.4955 271.5,15C 275.449,14.1932 275.449,13.6932 271.5,13.5C 271.5,12.1667 271.5,10.8333 271.5,9.5C 275.273,9.73674 278.94,9.23674 282.5,8C 273.489,7.09368 264.489,6.09368 255.5,5C 265.433,3.02322 275.267,3.52322 285,6.5C 288.931,3.42699 290.764,4.42699 290.5,9.5C 291.5,9.5 292.5,9.5 293.5,9.5C 293.264,12.8294 294.097,15.8294 296,18.5C 296.383,17.944 296.883,17.6107 297.5,17.5 Z"/></g>
<g><path style="opacity:1" fill="#ae4942" d="M 466.5,8.5 C 473.4,23.8506 479.733,39.5172 485.5,55.5C 482.607,52.3448 480.441,48.6782 479,44.5C 478,43.8333 477,43.1667 476,42.5C 475.107,37.4768 474.107,32.4768 473,27.5C 470.969,23.3349 468.803,19.3349 466.5,15.5C 466.5,13.1667 466.5,10.8333 466.5,8.5 Z"/></g>
<g><path style="opacity:1" fill="#af3027" d="M 466.5,15.5 C 468.803,19.3349 470.969,23.3349 473,27.5C 474.107,32.4768 475.107,37.4768 476,42.5C 477,43.1667 478,43.8333 479,44.5C 480.441,48.6782 482.607,52.3448 485.5,55.5C 486.205,60.3102 487.205,64.9769 488.5,69.5C 489.5,69.5 490.5,69.5 491.5,69.5C 493.028,72.7487 494.361,76.082 495.5,79.5C 494.504,79.5858 493.671,79.2524 493,78.5C 492.667,77.1667 492.333,75.8333 492,74.5C 491.009,75.9389 489.676,76.9389 488,77.5C 487.667,78.5 487.333,79.5 487,80.5C 486.176,96.4076 486.343,112.241 487.5,128C 486.167,128.333 484.833,128.667 483.5,129C 487.662,128.594 491.662,128.761 495.5,129.5C 483.635,131.96 471.635,132.96 459.5,132.5C 460.374,125.935 462.041,119.602 464.5,113.5C 463.842,86.8144 463.175,60.1477 462.5,33.5C 463.343,27.2749 464.676,21.2749 466.5,15.5 Z"/></g>
<g><path style="opacity:1" fill="#c57971" d="M 327.5,35.5 C 328.376,35.3691 329.043,35.7025 329.5,36.5C 333.029,43.2162 335.696,50.2162 337.5,57.5C 333.989,50.3233 330.656,42.9899 327.5,35.5 Z"/></g>
<g><path style="opacity:1" fill="#c46d65" d="M 414.5,31.5 C 416.516,35.1588 418.85,38.8255 421.5,42.5C 423.306,49.2498 425.306,55.9164 427.5,62.5C 422.373,52.5689 418.039,42.2356 414.5,31.5 Z"/></g>
<g><path style="opacity:1" fill="#6a6b6f" d="M 760.5,51.5 C 759.2,54.4323 757.2,56.7656 754.5,58.5C 755.449,56.2627 756.116,53.9294 756.5,51.5C 757.833,51.5 759.167,51.5 760.5,51.5 Z"/></g>
<g><path style="opacity:1" fill="#c0655d" d="M 249.5,47.5 C 250.5,47.5 251.5,47.5 252.5,47.5C 254.755,52.5208 256.089,57.8541 256.5,63.5C 253.795,58.4043 251.462,53.0709 249.5,47.5 Z"/></g>
<g><path style="opacity:1" fill="#b15b53" d="M 485.5,55.5 C 488.012,59.8662 490.012,64.5329 491.5,69.5C 490.5,69.5 489.5,69.5 488.5,69.5C 487.205,64.9769 486.205,60.3102 485.5,55.5 Z"/></g>
<g><path style="opacity:1" fill="#2d2f36" d="M 12.5,57.5 C 22.0364,62.0167 31.7031,66.3501 41.5,70.5C 52.3761,76.0965 63.7094,80.9299 75.5,85C 78.1024,85.8834 80.2691,87.3834 82,89.5C 82.7697,88.4019 83.603,88.4019 84.5,89.5C 85.1667,89.5 85.5,89.8333 85.5,90.5C 87.0945,93.2599 89.4279,95.0932 92.5,96C 98.0884,97.2889 103.755,97.7889 109.5,97.5C 110.167,97.5 110.833,97.5 111.5,97.5C 124.318,102.881 137.651,106.881 151.5,109.5C 167.097,114.423 183.097,118.089 199.5,120.5C 218.282,124.708 237.115,128.708 256,132.5C 258.405,131.726 260.905,131.226 263.5,131C 262.207,130.51 260.873,130.343 259.5,130.5C 259.15,127.144 259.983,124.144 262,121.5C 261.954,124.633 262.954,127.3 265,129.5C 265.333,129.167 265.667,128.833 266,128.5C 265.905,131.644 266.072,134.644 266.5,137.5C 268.144,137.286 269.644,137.62 271,138.5C 271.464,137.906 271.631,137.239 271.5,136.5C 283.685,164.214 295.352,192.214 306.5,220.5C 304.167,220.5 301.833,220.5 299.5,220.5C 299.5,221.833 299.5,223.167 299.5,224.5C 297.857,224.48 296.524,225.147 295.5,226.5C 294.914,226.291 294.414,225.957 294,225.5C 293.59,226.901 293.09,228.234 292.5,229.5C 289.912,231.592 286.912,232.925 283.5,233.5C 280.756,233.248 278.256,233.915 276,235.5C 274.108,235.223 272.775,234.223 272,232.5C 271.287,234.853 270.121,236.853 268.5,238.5C 261.308,240.266 253.974,241.433 246.5,242C 165.167,242.5 83.834,242.667 2.5,242.5C 3.10978,241.609 3.44312,240.609 3.5,239.5C 8.14962,232.855 13.1496,226.522 18.5,220.5C 19.9063,220.027 20.573,219.027 20.5,217.5C 20.8333,216.5 21.5,215.833 22.5,215.5C 28.0898,212.909 31.4231,208.576 32.5,202.5C 35.0745,197.591 38.4078,193.258 42.5,189.5C 43.9063,189.027 44.573,188.027 44.5,186.5C 45.7017,184.608 47.035,182.774 48.5,181C 113.186,180.964 177.853,180.297 242.5,179C 254.788,176.267 259.288,168.767 256,156.5C 253.807,150.812 249.64,147.645 243.5,147C 195.5,146.667 147.5,146.333 99.5,146C 77.4357,146.65 56.7691,141.65 37.5,131C 30.2655,126.6 24.5989,120.767 20.5,113.5C 20.6107,112.883 20.944,112.383 21.5,112C 21.128,109.675 19.7947,107.509 17.5,105.5C 16.6978,102.551 16.3645,99.5514 16.5,96.5C 15.0413,96.5674 13.7079,96.2341 12.5,95.5C 12.3573,93.7376 12.6906,92.0709 13.5,90.5C 12.1376,88.5732 11.1376,86.5732 10.5,84.5C 9.27137,75.257 9.93804,66.257 12.5,57.5 Z"/></g>
<g><path style="opacity:1" fill="#828184" d="M 100.5,64.5 C 97.7273,65.6572 94.7273,66.3239 91.5,66.5C 91.281,65.325 91.6143,64.325 92.5,63.5C 95.0841,64.3928 97.7508,64.7261 100.5,64.5 Z"/></g>
<g><path style="opacity:0.648" fill="#79797c" d="M 241.5,61.5 C 242.404,62.209 242.737,63.209 242.5,64.5C 195.5,64.5 148.5,64.5 101.5,64.5C 108.648,63.5084 115.981,63.175 123.5,63.5C 134.833,63.5 146.167,63.5 157.5,63.5C 168.167,63.5 178.833,63.5 189.5,63.5C 207.199,64.1527 224.532,63.486 241.5,61.5 Z"/></g>
<g><path style="opacity:1" fill="#c87a73" d="M 256.5,63.5 C 258.685,66.8545 260.685,70.5212 262.5,74.5C 264.403,79.9683 266.57,85.3016 269,90.5C 269.494,92.1341 269.66,93.8008 269.5,95.5C 264.648,85.1172 260.314,74.4505 256.5,63.5 Z"/></g>
<g><path style="opacity:1" fill="#aa2c22" d="M 319.5,71.5 C 319.5,71.8333 319.5,72.1667 319.5,72.5C 321.177,79.1931 323.177,85.8598 325.5,92.5C 323.894,94.5904 323.394,96.9238 324,99.5C 325.188,98.4366 325.688,97.1033 325.5,95.5C 326.5,95.5 327.5,95.5 328.5,95.5C 328.969,99.7366 330.136,103.737 332,107.5C 332.671,108.252 333.504,108.586 334.5,108.5C 334.5,108.833 334.5,109.167 334.5,109.5C 334.187,112.247 334.52,114.914 335.5,117.5C 337.7,119.253 338.867,121.586 339,124.5C 339.671,125.252 340.504,125.586 341.5,125.5C 344.499,132.828 347.499,140.162 350.5,147.5C 348.926,147.063 347.759,146.063 347,144.5C 346.342,141.715 345.509,139.049 344.5,136.5C 328.824,136.521 313.157,136.187 297.5,135.5C 296.391,134.71 295.058,134.21 293.5,134C 294.333,133.833 295.167,133.667 296,133.5C 300.154,133.517 304.32,133.683 308.5,134C 307.437,132.812 306.103,132.312 304.5,132.5C 304.5,130.833 304.5,129.167 304.5,127.5C 305.5,127.5 306.5,127.5 307.5,127.5C 307.667,110.163 307.5,92.8301 307,75.5C 304.585,72.9684 303.919,69.9684 305,66.5C 305.17,68.7148 305.837,70.7148 307,72.5C 307.957,68.9013 307.457,65.568 305.5,62.5C 305.919,61.3279 306.585,60.3279 307.5,59.5C 308.506,59.9377 308.506,60.6043 307.5,61.5C 308.628,62.2621 309.795,62.9288 311,63.5C 311.333,65.8333 311.667,68.1667 312,70.5C 312.667,69.1667 313.333,67.8333 314,66.5C 315.076,69.079 316.909,70.7457 319.5,71.5 Z"/></g>
<g><path style="opacity:1" fill="#a7281f" d="M 495.5,79.5 C 495.5,79.8333 495.5,80.1667 495.5,80.5C 496.051,85.3715 497.218,90.0381 499,94.5C 502.708,100.546 505.708,106.88 508,113.5C 509.512,117.371 510.345,121.371 510.5,125.5C 509.325,125.281 508.325,125.614 507.5,126.5C 510.08,127.549 512.746,128.216 515.5,128.5C 517.028,131.749 518.361,135.082 519.5,138.5C 518.504,138.586 517.671,138.252 517,137.5C 516.728,134.568 515.562,132.068 513.5,130C 507.509,129.501 501.509,129.334 495.5,129.5C 491.662,128.761 487.662,128.594 483.5,129C 484.833,128.667 486.167,128.333 487.5,128C 486.343,112.241 486.176,96.4076 487,80.5C 487.333,79.5 487.667,78.5 488,77.5C 489.676,76.9389 491.009,75.9389 492,74.5C 492.333,75.8333 492.667,77.1667 493,78.5C 493.671,79.2524 494.504,79.5858 495.5,79.5 Z"/></g>
<g><path style="opacity:1" fill="#a74b41" d="M 405.5,75.5 C 408.065,79.8435 410.065,84.5102 411.5,89.5C 407.171,86.0244 405.171,81.3577 405.5,75.5 Z"/></g>
<g><path style="opacity:0.969" fill="#bd6963" d="M 427.5,64.5 C 428.496,64.4142 429.329,64.7476 430,65.5C 431.475,68.9209 433.141,72.2542 435,75.5C 436.15,79.1117 436.983,82.7783 437.5,86.5C 433.989,79.3233 430.656,71.9899 427.5,64.5 Z"/></g>
<g><path style="opacity:1" fill="#77777c" d="M 10.5,84.5 C 11.1376,86.5732 12.1376,88.5732 13.5,90.5C 12.6906,92.0709 12.3573,93.7376 12.5,95.5C 11.0966,92.0915 10.4299,88.4248 10.5,84.5 Z"/></g>
<g><path style="opacity:0.037" fill="#f0f1f2" d="M 109.5,97.5 C 103.755,97.7889 98.0884,97.2889 92.5,96C 89.4279,95.0932 87.0945,93.2599 85.5,90.5C 86.1499,90.1961 86.8165,89.8627 87.5,89.5C 95.0083,91.9997 102.342,94.6664 109.5,97.5 Z"/></g>
<g><path style="opacity:1" fill="#505156" d="M 637.5,91.5 C 652.833,91.5 668.167,91.5 683.5,91.5C 681.708,92.3091 679.708,92.8091 677.5,93C 678.833,94.3333 680.167,95.6667 681.5,97C 678.499,97.7378 675.832,98.9045 673.5,100.5C 660.435,101.785 647.435,103.619 634.5,106C 630.935,106.687 627.602,107.854 624.5,109.5C 623.68,113.1 621.347,115.1 617.5,115.5C 623.692,107.122 630.359,99.1216 637.5,91.5 Z"/></g>
<g><path style="opacity:1" fill="#424349" d="M 683.5,91.5 C 697.5,91.5 711.5,91.5 725.5,91.5C 725.082,92.2216 724.416,92.7216 723.5,93C 734.167,93.6667 734.167,94.3333 723.5,95C 727.156,95.0786 730.49,96.0786 733.5,98C 713.478,98.5009 693.478,99.3343 673.5,100.5C 675.832,98.9045 678.499,97.7378 681.5,97C 680.167,95.6667 678.833,94.3333 677.5,93C 679.708,92.8091 681.708,92.3091 683.5,91.5 Z"/></g>
<g><path style="opacity:1" fill="#bc655c" d="M 339.5,63.5 C 341.178,64.7471 342.511,66.4138 343.5,68.5C 346.018,75.5243 349.018,82.1909 352.5,88.5C 352.5,89.5 352.5,90.5 352.5,91.5C 356.389,91.6426 357.389,93.4759 355.5,97C 358.381,104.034 361.381,111.034 364.5,118C 365.869,121.012 366.536,124.179 366.5,127.5C 357.129,106.406 348.129,85.0728 339.5,63.5 Z"/></g>
<g><path style="opacity:1" fill="#c46f67" d="M 437.5,88.5 C 438.609,88.5569 439.609,88.8902 440.5,89.5C 442.259,94.0651 443.592,98.7317 444.5,103.5C 441.928,98.6849 439.594,93.6849 437.5,88.5 Z"/></g>
<g><path style="opacity:1" fill="#a8473e" d="M 319.5,72.5 C 325.012,84.2028 330.012,96.2028 334.5,108.5C 333.504,108.586 332.671,108.252 332,107.5C 330.136,103.737 328.969,99.7366 328.5,95.5C 327.5,95.5 326.5,95.5 325.5,95.5C 325.688,97.1033 325.188,98.4366 324,99.5C 323.394,96.9238 323.894,94.5904 325.5,92.5C 323.177,85.8598 321.177,79.1931 319.5,72.5 Z"/></g>
<g><path style="opacity:1" fill="#515257" d="M 111.5,97.5 C 159.67,97.1678 207.67,97.5012 255.5,98.5C 239.5,98.5 223.5,98.5 207.5,98.5C 191.497,98.3334 175.497,98.5001 159.5,99C 170.167,100 170.167,101 159.5,102C 162.167,102.333 164.833,102.667 167.5,103C 164.167,103.333 160.833,103.667 157.5,104C 158.167,104.333 158.833,104.667 159.5,105C 155.75,105.26 152.084,105.927 148.5,107C 150.119,107.236 151.119,108.069 151.5,109.5C 137.651,106.881 124.318,102.881 111.5,97.5 Z"/></g>
<g><path style="opacity:1" fill="#424349" d="M 207.5,98.5 C 209.292,99.3091 211.292,99.8091 213.5,100C 211.073,101.591 208.407,102.425 205.5,102.5C 205.5,103.5 205.5,104.5 205.5,105.5C 207.5,105.5 209.5,105.5 211.5,105.5C 211.5,107.5 211.5,109.5 211.5,111.5C 210.167,111.5 208.833,111.5 207.5,111.5C 208.019,117.315 205.352,120.315 199.5,120.5C 183.097,118.089 167.097,114.423 151.5,109.5C 151.119,108.069 150.119,107.236 148.5,107C 152.084,105.927 155.75,105.26 159.5,105C 158.833,104.667 158.167,104.333 157.5,104C 160.833,103.667 164.167,103.333 167.5,103C 164.833,102.667 162.167,102.333 159.5,102C 170.167,101 170.167,100 159.5,99C 175.497,98.5001 191.497,98.3334 207.5,98.5 Z"/></g>
<g><path style="opacity:1" fill="#36373e" d="M 207.5,98.5 C 223.5,98.5 239.5,98.5 255.5,98.5C 261.345,110.868 266.679,123.535 271.5,136.5C 271.631,137.239 271.464,137.906 271,138.5C 269.644,137.62 268.144,137.286 266.5,137.5C 266.072,134.644 265.905,131.644 266,128.5C 265.667,128.833 265.333,129.167 265,129.5C 262.954,127.3 261.954,124.633 262,121.5C 259.983,124.144 259.15,127.144 259.5,130.5C 260.873,130.343 262.207,130.51 263.5,131C 260.905,131.226 258.405,131.726 256,132.5C 237.115,128.708 218.282,124.708 199.5,120.5C 205.352,120.315 208.019,117.315 207.5,111.5C 208.833,111.5 210.167,111.5 211.5,111.5C 211.5,109.5 211.5,107.5 211.5,105.5C 209.5,105.5 207.5,105.5 205.5,105.5C 205.5,104.5 205.5,103.5 205.5,102.5C 208.407,102.425 211.073,101.591 213.5,100C 211.292,99.8091 209.292,99.3091 207.5,98.5 Z"/></g>
<g><path style="opacity:1" fill="#b95047" d="M 269.5,95.5 C 271.488,96.7445 273.488,98.0778 275.5,99.5C 277.031,104.25 277.698,109.25 277.5,114.5C 274.073,108.569 271.406,102.236 269.5,95.5 Z"/></g>
<g><path style="opacity:1" fill="#2c2e35" d="M 725.5,91.5 C 747.5,91.5 769.5,91.5 791.5,91.5C 791.5,141.5 791.5,191.5 791.5,241.5C 730.499,241.667 669.499,241.5 608.5,241C 594.564,239.784 581.23,236.618 568.5,231.5C 569.686,227.526 568.352,224.526 564.5,222.5C 551.777,191.998 539.443,161.331 527.5,130.5C 529.858,128.871 532.524,127.705 535.5,127C 542.159,125.724 548.826,124.557 555.5,123.5C 555.205,125.735 555.539,127.735 556.5,129.5C 561.597,152.767 575.597,167.934 598.5,175C 606.967,177.627 615.634,178.96 624.5,179C 655.498,179.5 686.498,179.667 717.5,179.5C 717.5,168.167 717.5,156.833 717.5,145.5C 676.669,144.667 635.669,144.167 594.5,144C 595.252,143.329 595.586,142.496 595.5,141.5C 600.446,134.221 606.113,127.554 612.5,121.5C 613.906,121.027 614.573,120.027 614.5,118.5C 615.167,117.167 616.167,116.167 617.5,115.5C 621.347,115.1 623.68,113.1 624.5,109.5C 627.602,107.854 630.935,106.687 634.5,106C 647.435,103.619 660.435,101.785 673.5,100.5C 693.478,99.3343 713.478,98.5009 733.5,98C 730.49,96.0786 727.156,95.0786 723.5,95C 734.167,94.3333 734.167,93.6667 723.5,93C 724.416,92.7216 725.082,92.2216 725.5,91.5 Z"/></g>
<g><path style="opacity:1" fill="#56575c" d="M 12.5,95.5 C 13.7079,96.2341 15.0413,96.5674 16.5,96.5C 16.3645,99.5514 16.6978,102.551 17.5,105.5C 19.7947,107.509 21.128,109.675 21.5,112C 20.944,112.383 20.6107,112.883 20.5,113.5C 16.2355,108.297 13.5688,102.297 12.5,95.5 Z"/></g>
<g><path style="opacity:1" fill="#a24238" d="M 495.5,80.5 C 502.679,96.2028 509.345,112.203 515.5,128.5C 512.746,128.216 510.08,127.549 507.5,126.5C 508.325,125.614 509.325,125.281 510.5,125.5C 510.345,121.371 509.512,117.371 508,113.5C 505.708,106.88 502.708,100.546 499,94.5C 497.218,90.0381 496.051,85.3715 495.5,80.5 Z"/></g>
<g><path style="opacity:1" fill="#a92b21" d="M 401.5,64.5 C 403.229,68.0205 404.562,71.6872 405.5,75.5C 405.171,81.3577 407.171,86.0244 411.5,89.5C 416.346,99.8721 420.679,110.539 424.5,121.5C 425.01,125.884 425.843,130.218 427,134.5C 428.011,135.337 429.178,135.67 430.5,135.5C 433.224,141.338 435.557,147.338 437.5,153.5C 436.115,152.426 434.949,151.093 434,149.5C 433.002,152.028 432.169,152.028 431.5,149.5C 431.833,148.167 432.167,146.833 432.5,145.5C 431.008,143.028 430.342,140.361 430.5,137.5C 428.512,137.173 426.512,136.84 424.5,136.5C 407.82,137.167 391.153,137.833 374.5,138.5C 374.5,139.833 374.5,141.167 374.5,142.5C 373.262,140.786 372.595,138.786 372.5,136.5C 378.925,136.674 385.259,136.007 391.5,134.5C 389.5,133.5 387.5,132.5 385.5,131.5C 386.323,108.543 386.823,85.5428 387,62.5C 387.414,62.9574 387.914,63.2907 388.5,63.5C 389.487,60.2317 389.82,56.8984 389.5,53.5C 388.5,53.5 387.5,53.5 386.5,53.5C 386.5,51.5 386.5,49.5 386.5,47.5C 387.5,47.5 388.5,47.5 389.5,47.5C 389.215,49.288 389.548,50.9547 390.5,52.5C 392.102,53.55 392.935,52.8833 393,50.5C 393.29,52.0441 393.956,53.3774 395,54.5C 395.393,57.3458 395.226,59.8458 394.5,62C 395.784,62.6838 396.951,62.5171 398,61.5C 398.422,63.4257 399.589,64.4257 401.5,64.5 Z"/></g>
<g><path style="opacity:0.992" fill="#bd6962" d="M 444.5,103.5 C 445.735,103.721 446.735,104.388 447.5,105.5C 450.228,112.685 452.561,120.019 454.5,127.5C 450.598,119.808 447.264,111.808 444.5,103.5 Z"/></g>
<g><path style="opacity:1" fill="#be6961" d="M 277.5,115.5 C 278.5,115.5 279.5,115.5 280.5,115.5C 282.84,123.51 285.174,131.51 287.5,139.5C 283.991,131.657 280.658,123.657 277.5,115.5 Z"/></g>
<g><path style="opacity:0.675" fill="#a8aaac" d="M 614.5,118.5 C 614.573,120.027 613.906,121.027 612.5,121.5C 612.427,119.973 613.094,118.973 614.5,118.5 Z"/></g>
<g><path style="opacity:1" fill="#a4453a" d="M 334.5,109.5 C 337.345,114.531 339.678,119.864 341.5,125.5C 340.504,125.586 339.671,125.252 339,124.5C 338.867,121.586 337.7,119.253 335.5,117.5C 334.52,114.914 334.187,112.247 334.5,109.5 Z"/></g>
<g><path style="opacity:1" fill="#c58478" d="M 454.5,127.5 C 456.256,128.552 456.923,130.219 456.5,132.5C 455.069,131.22 454.402,129.553 454.5,127.5 Z"/></g>
<g><path style="opacity:1" fill="#a04037" d="M 424.5,121.5 C 426.676,126.008 428.676,130.675 430.5,135.5C 429.178,135.67 428.011,135.337 427,134.5C 425.843,130.218 425.01,125.884 424.5,121.5 Z"/></g>
<g><path style="opacity:1" fill="#bc1d11" d="M 495.5,129.5 C 501.509,129.334 507.509,129.501 513.5,130C 515.562,132.068 516.728,134.568 517,137.5C 517.671,138.252 518.504,138.586 519.5,138.5C 519.5,138.833 519.5,139.167 519.5,139.5C 519.198,143.38 520.531,146.38 523.5,148.5C 523.235,152.653 524.569,155.987 527.5,158.5C 526.75,162.775 528.083,166.109 531.5,168.5C 531.678,171.216 532.178,173.883 533,176.5C 533.671,177.252 534.504,177.586 535.5,177.5C 535.5,177.833 535.5,178.167 535.5,178.5C 536.942,184.109 538.109,189.776 539,195.5C 541.594,199.695 544.427,203.695 547.5,207.5C 547.678,210.216 548.178,212.883 549,215.5C 549.671,216.252 550.504,216.586 551.5,216.5C 551.5,216.833 551.5,217.167 551.5,217.5C 551.89,220.839 552.39,224.173 553,227.5C 553.876,229.635 555.376,230.969 557.5,231.5C 558.051,234.807 558.384,238.14 558.5,241.5C 540.155,241.833 521.821,241.5 503.5,240.5C 499.391,231.281 495.557,221.948 492,212.5C 491.329,211.748 490.496,211.414 489.5,211.5C 488.662,211.158 488.328,210.492 488.5,209.5C 488.662,207.473 488.495,205.473 488,203.5C 487.329,202.748 486.496,202.414 485.5,202.5C 485.5,202.167 485.5,201.833 485.5,201.5C 485.186,198.053 484.352,194.72 483,191.5C 482.583,190.244 481.75,189.577 480.5,189.5C 477.665,181.164 474.832,172.831 472,164.5C 471.329,163.748 470.496,163.414 469.5,163.5C 469.821,160.423 468.821,158.09 466.5,156.5C 465.685,152.856 464.852,149.189 464,145.5C 462.758,143.141 461.258,141.141 459.5,139.5C 459.5,137.167 459.5,134.833 459.5,132.5C 471.635,132.96 483.635,131.96 495.5,129.5 Z"/></g>
<g><path style="opacity:1" fill="#bc1d11" d="M 297.5,135.5 C 313.157,136.187 328.824,136.521 344.5,136.5C 345.509,139.049 346.342,141.715 347,144.5C 347.759,146.063 348.926,147.063 350.5,147.5C 350.5,147.833 350.5,148.167 350.5,148.5C 352.421,154.297 353.588,160.297 354,166.5C 354.667,165.167 355.333,165.167 356,166.5C 357.273,168.714 358.273,171.047 359,173.5C 359.671,174.252 360.504,174.586 361.5,174.5C 361.5,174.833 361.5,175.167 361.5,175.5C 363.039,181.946 364.872,188.28 367,194.5C 367.894,196.767 369.394,198.434 371.5,199.5C 371.678,202.216 372.178,204.883 373,207.5C 373.671,208.252 374.504,208.586 375.5,208.5C 375.5,208.833 375.5,209.167 375.5,209.5C 375.678,212.216 376.178,214.883 377,217.5C 377.671,218.252 378.504,218.586 379.5,218.5C 379.338,220.527 379.505,222.527 380,224.5C 381.722,230.434 383.889,236.1 386.5,241.5C 367.091,241.82 347.757,241.487 328.5,240.5C 328.5,240.167 328.5,239.833 328.5,239.5C 328.923,237.219 328.256,235.552 326.5,234.5C 326.821,231.423 325.821,229.09 323.5,227.5C 323.579,224.729 323.079,222.063 322,219.5C 318.343,210.516 314.843,201.516 311.5,192.5C 310.583,191.873 309.583,191.539 308.5,191.5C 308.5,191.167 308.5,190.833 308.5,190.5C 309.021,187.364 308.021,185.03 305.5,183.5C 305.579,180.729 305.079,178.063 304,175.5C 303.329,174.748 302.496,174.414 301.5,174.5C 301.5,174.167 301.5,173.833 301.5,173.5C 301.923,171.219 301.256,169.552 299.5,168.5C 297.573,161.436 295.573,154.769 293.5,148.5C 292.735,147.388 291.735,146.721 290.5,146.5C 290.576,142.616 289.91,138.95 288.5,135.5C 291.5,135.5 294.5,135.5 297.5,135.5 Z"/></g>
<g><path style="opacity:1" fill="#c06156" d="M 366.5,127.5 C 367.496,127.414 368.329,127.748 369,128.5C 369.004,131.792 370.17,134.458 372.5,136.5C 372.595,138.786 373.262,140.786 374.5,142.5C 376.085,145.973 377.085,149.639 377.5,153.5C 373.321,145.132 369.655,136.466 366.5,127.5 Z"/></g>
<g><path style="opacity:1" fill="#bc1d11" d="M 437.5,153.5 C 437.678,156.216 438.178,158.883 439,161.5C 439.671,162.252 440.504,162.586 441.5,162.5C 441.5,162.833 441.5,163.167 441.5,163.5C 441.678,166.216 442.178,168.883 443,171.5C 443.671,172.252 444.504,172.586 445.5,172.5C 445.235,176.653 446.569,179.987 449.5,182.5C 448.75,186.775 450.083,190.109 453.5,192.5C 453.865,197.379 454.865,202.046 456.5,206.5C 457.5,206.5 458.5,206.5 459.5,206.5C 459.5,206.833 459.5,207.167 459.5,207.5C 460.578,213.027 462.245,218.36 464.5,223.5C 463.892,224.8 463.225,226.133 462.5,227.5C 464.7,229.253 465.867,231.586 466,234.5C 468.464,235.042 469.631,237.042 469.5,240.5C 451.821,240.833 434.154,240.5 416.5,239.5C 415.452,238.452 414.452,237.452 413.5,236.5C 412.699,234.001 411.366,232.001 409.5,230.5C 409.459,226.764 408.126,223.764 405.5,221.5C 404.559,219.95 403.893,218.284 403.5,216.5C 402,206.863 398.834,197.863 394,189.5C 393.617,190.056 393.117,190.389 392.5,190.5C 392.5,190.167 392.5,189.833 392.5,189.5C 392.611,188.883 392.944,188.383 393.5,188C 391.501,182.418 389.334,176.918 387,171.5C 386.329,170.748 385.496,170.414 384.5,170.5C 384.107,164.642 382.107,159.475 378.5,155C 379.712,153.893 379.379,153.393 377.5,153.5C 377.085,149.639 376.085,145.973 374.5,142.5C 374.5,141.167 374.5,139.833 374.5,138.5C 391.153,137.833 407.82,137.167 424.5,136.5C 426.512,136.84 428.512,137.173 430.5,137.5C 430.342,140.361 431.008,143.028 432.5,145.5C 432.167,146.833 431.833,148.167 431.5,149.5C 432.169,152.028 433.002,152.028 434,149.5C 434.949,151.093 436.115,152.426 437.5,153.5 Z"/></g>
<g><path style="opacity:0.061" fill="#efeff0" d="M 595.5,141.5 C 595.586,142.496 595.252,143.329 594.5,144C 635.669,144.167 676.669,144.667 717.5,145.5C 676.165,145.667 634.832,145.5 593.5,145C 592.828,143.421 593.495,142.254 595.5,141.5 Z"/></g>
<g><path style="opacity:1" fill="#ca6358" d="M 459.5,139.5 C 461.258,141.141 462.758,143.141 464,145.5C 464.852,149.189 465.685,152.856 466.5,156.5C 463.597,151.14 461.264,145.473 459.5,139.5 Z"/></g>
<g><path style="opacity:1" fill="#b5493a" d="M 519.5,139.5 C 521.592,142.088 522.925,145.088 523.5,148.5C 520.531,146.38 519.198,143.38 519.5,139.5 Z"/></g>
<g><path style="opacity:1" fill="#c35b4d" d="M 290.5,146.5 C 291.735,146.721 292.735,147.388 293.5,148.5C 295.573,154.769 297.573,161.436 299.5,168.5C 295.981,161.451 292.981,154.118 290.5,146.5 Z"/></g>
<g><path style="opacity:1" fill="#b74a3a" d="M 523.5,148.5 C 525.346,151.54 526.679,154.873 527.5,158.5C 524.569,155.987 523.235,152.653 523.5,148.5 Z"/></g>
<g><path style="opacity:0.988" fill="#c16454" d="M 377.5,153.5 C 379.379,153.393 379.712,153.893 378.5,155C 382.107,159.475 384.107,164.642 384.5,170.5C 381.597,165.14 379.264,159.473 377.5,153.5 Z"/></g>
<g><path style="opacity:1" fill="#b75241" d="M 437.5,153.5 C 439.204,156.256 440.537,159.256 441.5,162.5C 440.504,162.586 439.671,162.252 439,161.5C 438.178,158.883 437.678,156.216 437.5,153.5 Z"/></g>
<g><path style="opacity:0.976" fill="#c87369" d="M 466.5,156.5 C 468.821,158.09 469.821,160.423 469.5,163.5C 467.935,161.491 466.935,159.157 466.5,156.5 Z"/></g>
<g><path style="opacity:1" fill="#b83f2d" d="M 350.5,148.5 C 354.537,156.927 358.204,165.594 361.5,174.5C 360.504,174.586 359.671,174.252 359,173.5C 358.273,171.047 357.273,168.714 356,166.5C 355.333,165.167 354.667,165.167 354,166.5C 353.588,160.297 352.421,154.297 350.5,148.5 Z"/></g>
<g><path style="opacity:1" fill="#b44539" d="M 527.5,158.5 C 529.346,161.54 530.679,164.873 531.5,168.5C 528.083,166.109 526.75,162.775 527.5,158.5 Z"/></g>
<g><path style="opacity:1" fill="#cb7264" d="M 299.5,168.5 C 301.256,169.552 301.923,171.219 301.5,173.5C 300.069,172.22 299.402,170.553 299.5,168.5 Z"/></g>
<g><path style="opacity:1" fill="#bb4b3d" d="M 441.5,163.5 C 443.204,166.256 444.537,169.256 445.5,172.5C 444.504,172.586 443.671,172.252 443,171.5C 442.178,168.883 441.678,166.216 441.5,163.5 Z"/></g>
<g><path style="opacity:1" fill="#bc5041" d="M 531.5,168.5 C 533.204,171.256 534.537,174.256 535.5,177.5C 534.504,177.586 533.671,177.252 533,176.5C 532.178,173.883 531.678,171.216 531.5,168.5 Z"/></g>
<g><path style="opacity:1" fill="#bd5a4b" d="M 301.5,174.5 C 302.496,174.414 303.329,174.748 304,175.5C 305.079,178.063 305.579,180.729 305.5,183.5C 303.93,180.686 302.597,177.686 301.5,174.5 Z"/></g>
<g><path style="opacity:1" fill="#bb4f40" d="M 384.5,170.5 C 385.496,170.414 386.329,170.748 387,171.5C 389.334,176.918 391.501,182.418 393.5,188C 392.944,188.383 392.611,188.883 392.5,189.5C 389.073,183.569 386.406,177.236 384.5,170.5 Z"/></g>
<g><path style="opacity:1" fill="#be5448" d="M 445.5,172.5 C 447.346,175.54 448.679,178.873 449.5,182.5C 446.569,179.987 445.235,176.653 445.5,172.5 Z"/></g>
<g><path style="opacity:1" fill="#c06053" d="M 469.5,163.5 C 470.496,163.414 471.329,163.748 472,164.5C 474.832,172.831 477.665,181.164 480.5,189.5C 476.321,181.132 472.655,172.466 469.5,163.5 Z"/></g>
<g><path style="opacity:1" fill="#c6685b" d="M 305.5,183.5 C 308.021,185.03 309.021,187.364 308.5,190.5C 306.935,188.491 305.935,186.157 305.5,183.5 Z"/></g>
<g><path style="opacity:0.686" fill="#a8aaab" d="M 44.5,186.5 C 44.573,188.027 43.9063,189.027 42.5,189.5C 42.427,187.973 43.0937,186.973 44.5,186.5 Z"/></g>
<g><path style="opacity:1" fill="#bc4c3f" d="M 361.5,175.5 C 365.399,183.18 368.733,191.18 371.5,199.5C 369.394,198.434 367.894,196.767 367,194.5C 364.872,188.28 363.039,181.946 361.5,175.5 Z"/></g>
<g><path style="opacity:1" fill="#bb5345" d="M 449.5,182.5 C 451.346,185.54 452.679,188.873 453.5,192.5C 450.083,190.109 448.75,186.775 449.5,182.5 Z"/></g>
<g><path style="opacity:1" fill="#c35945" d="M 403.5,216.5 C 399.463,208.073 395.796,199.406 392.5,190.5C 393.117,190.389 393.617,190.056 394,189.5C 398.834,197.863 402,206.863 403.5,216.5 Z"/></g>
<g><path style="opacity:1" fill="#bf5c4a" d="M 480.5,189.5 C 481.75,189.577 482.583,190.244 483,191.5C 484.352,194.72 485.186,198.053 485.5,201.5C 483.069,197.889 481.403,193.889 480.5,189.5 Z"/></g>
<g><path style="opacity:1" fill="#b83b30" d="M 535.5,178.5 C 540.261,187.767 544.261,197.434 547.5,207.5C 544.427,203.695 541.594,199.695 539,195.5C 538.109,189.776 536.942,184.109 535.5,178.5 Z"/></g>
<g><path style="opacity:0.424" fill="#9b9b9f" d="M 637.5,91.5 C 688.997,90.5011 740.664,90.1678 792.5,90.5C 792.832,141.003 792.499,191.336 791.5,241.5C 791.5,191.5 791.5,141.5 791.5,91.5C 769.5,91.5 747.5,91.5 725.5,91.5C 711.5,91.5 697.5,91.5 683.5,91.5C 668.167,91.5 652.833,91.5 637.5,91.5 Z"/></g>
<g><path style="opacity:1" fill="#be4e42" d="M 453.5,192.5 C 456.012,196.866 458.012,201.533 459.5,206.5C 458.5,206.5 457.5,206.5 456.5,206.5C 454.865,202.046 453.865,197.379 453.5,192.5 Z"/></g>
<g><path style="opacity:1" fill="#c7685b" d="M 485.5,202.5 C 486.496,202.414 487.329,202.748 488,203.5C 488.495,205.473 488.662,207.473 488.5,209.5C 487.264,207.351 486.264,205.018 485.5,202.5 Z"/></g>
<g><path style="opacity:1" fill="#bf5b4e" d="M 371.5,199.5 C 373.204,202.256 374.537,205.256 375.5,208.5C 374.504,208.586 373.671,208.252 373,207.5C 372.178,204.883 371.678,202.216 371.5,199.5 Z"/></g>
<g><path style="opacity:1" fill="#535458" d="M 32.5,202.5 C 31.4231,208.576 28.0898,212.909 22.5,215.5C 25.0745,210.591 28.4078,206.258 32.5,202.5 Z"/></g>
<g><path style="opacity:1" fill="#c25b4b" d="M 308.5,191.5 C 309.583,191.539 310.583,191.873 311.5,192.5C 314.843,201.516 318.343,210.516 322,219.5C 323.079,222.063 323.579,224.729 323.5,227.5C 318.129,215.739 313.129,203.739 308.5,191.5 Z"/></g>
<g><path style="opacity:1" fill="#c45e52" d="M 459.5,207.5 C 462.345,212.531 464.678,217.864 466.5,223.5C 465.833,223.5 465.167,223.5 464.5,223.5C 462.245,218.36 460.578,213.027 459.5,207.5 Z"/></g>
<g><path style="opacity:1" fill="#bd5748" d="M 547.5,207.5 C 549.204,210.256 550.537,213.256 551.5,216.5C 550.504,216.586 549.671,216.252 549,215.5C 548.178,212.883 547.678,210.216 547.5,207.5 Z"/></g>
<g><path style="opacity:1" fill="#bf5448" d="M 375.5,209.5 C 377.204,212.256 378.537,215.256 379.5,218.5C 378.504,218.586 377.671,218.252 377,217.5C 376.178,214.883 375.678,212.216 375.5,209.5 Z"/></g>
<g><path style="opacity:0.682" fill="#adb0b2" d="M 20.5,217.5 C 20.573,219.027 19.9063,220.027 18.5,220.5C 18.427,218.973 19.0937,217.973 20.5,217.5 Z"/></g>
<g><path style="opacity:1" fill="#bb4d41" d="M 551.5,217.5 C 554.012,221.866 556.012,226.533 557.5,231.5C 555.376,230.969 553.876,229.635 553,227.5C 552.39,224.173 551.89,220.839 551.5,217.5 Z"/></g>
<g><path style="opacity:1" fill="#66696c" d="M 564.5,222.5 C 568.352,224.526 569.686,227.526 568.5,231.5C 566.796,228.744 565.463,225.744 564.5,222.5 Z"/></g>
<g><path style="opacity:1" fill="#64646a" d="M 306.5,220.5 C 302.521,224.494 297.855,227.494 292.5,229.5C 293.09,228.234 293.59,226.901 294,225.5C 294.414,225.957 294.914,226.291 295.5,226.5C 296.524,225.147 297.857,224.48 299.5,224.5C 299.5,223.167 299.5,221.833 299.5,220.5C 301.833,220.5 304.167,220.5 306.5,220.5 Z"/></g>
<g><path style="opacity:0.867" fill="#be6d5f" d="M 405.5,221.5 C 408.126,223.764 409.459,226.764 409.5,230.5C 407.93,227.686 406.597,224.686 405.5,221.5 Z"/></g>
<g><path style="opacity:0.996" fill="#c96a61" d="M 323.5,227.5 C 325.821,229.09 326.821,231.423 326.5,234.5C 324.935,232.491 323.935,230.157 323.5,227.5 Z"/></g>
<g><path style="opacity:1" fill="#d27d71" d="M 468.5,229.5 C 470.008,231.181 471.008,233.181 471.5,235.5C 469.031,234.393 468.031,232.393 468.5,229.5 Z"/></g>
<g><path style="opacity:1" fill="#626369" d="M 283.5,233.5 C 278.921,236.137 273.921,237.804 268.5,238.5C 270.121,236.853 271.287,234.853 272,232.5C 272.775,234.223 274.108,235.223 276,235.5C 278.256,233.915 280.756,233.248 283.5,233.5 Z"/></g>
<g><path style="opacity:1" fill="#c97169" d="M 326.5,234.5 C 328.256,235.552 328.923,237.219 328.5,239.5C 327.069,238.22 326.402,236.553 326.5,234.5 Z"/></g>
<g><path style="opacity:1" fill="#c7685f" d="M 409.5,230.5 C 411.366,232.001 412.699,234.001 413.5,236.5C 413.5,237.5 413.5,238.5 413.5,239.5C 411.408,236.912 410.075,233.912 409.5,230.5 Z"/></g>
<g><path style="opacity:0.69" fill="#a9abab" d="M 3.5,239.5 C 3.44312,240.609 3.10978,241.609 2.5,242.5C 1.28485,241.221 1.61818,240.221 3.5,239.5 Z"/></g>
<g><path style="opacity:1" fill="#b02519" d="M 464.5,223.5 C 465.167,223.5 465.833,223.5 466.5,223.5C 467.73,225.297 468.396,227.297 468.5,229.5C 468.031,232.393 469.031,234.393 471.5,235.5C 471.5,235.833 471.5,236.167 471.5,236.5C 471.5,238.167 471.5,239.833 471.5,241.5C 452.12,241.809 432.787,241.475 413.5,240.5C 413.5,240.167 413.5,239.833 413.5,239.5C 413.5,238.5 413.5,237.5 413.5,236.5C 414.452,237.452 415.452,238.452 416.5,239.5C 434.154,240.5 451.821,240.833 469.5,240.5C 469.631,237.042 468.464,235.042 466,234.5C 465.867,231.586 464.7,229.253 462.5,227.5C 463.225,226.133 463.892,224.8 464.5,223.5 Z"/></g>
<g><path style="opacity:0.906" fill="#c07165" d="M 379.5,218.5 C 382.679,224.874 385.346,231.54 387.5,238.5C 387.843,240.483 387.176,241.817 385.5,242.5C 384.833,242.5 384.5,242.833 384.5,243.5C 368.5,243.5 352.5,243.5 336.5,243.5C 333.523,243.098 330.857,242.098 328.5,240.5C 347.757,241.487 367.091,241.82 386.5,241.5C 383.889,236.1 381.722,230.434 380,224.5C 379.505,222.527 379.338,220.527 379.5,218.5 Z"/></g>
<g><path style="opacity:0.925" fill="#d6afaa" d="M 387.5,238.5 C 389.373,239.896 389.706,241.563 388.5,243.5C 387.5,243.5 386.5,243.5 385.5,243.5C 385.5,243.167 385.5,242.833 385.5,242.5C 387.176,241.817 387.843,240.483 387.5,238.5 Z"/></g>
<g><path style="opacity:0.906" fill="#be766b" d="M 471.5,236.5 C 472.338,236.842 472.672,237.508 472.5,238.5C 472.843,240.483 472.176,241.817 470.5,242.5C 469.508,242.328 468.842,242.662 468.5,243.5C 453.167,243.5 437.833,243.5 422.5,243.5C 419.203,243.11 416.203,242.11 413.5,240.5C 432.787,241.475 452.12,241.809 471.5,241.5C 471.5,239.833 471.5,238.167 471.5,236.5 Z"/></g>
<g><path style="opacity:0.827" fill="#dcbeb6" d="M 472.5,238.5 C 474.373,239.896 474.706,241.563 473.5,243.5C 472.5,243.5 471.5,243.5 470.5,243.5C 470.5,243.167 470.5,242.833 470.5,242.5C 472.176,241.817 472.843,240.483 472.5,238.5 Z"/></g>
<g><path style="opacity:0.902" fill="#bc6b5f" d="M 489.5,211.5 C 490.496,211.414 491.329,211.748 492,212.5C 495.557,221.948 499.391,231.281 503.5,240.5C 521.821,241.5 540.155,241.833 558.5,241.5C 558.384,238.14 558.051,234.807 557.5,231.5C 559.806,235.085 561.139,239.085 561.5,243.5C 560.833,243.5 560.167,243.5 559.5,243.5C 558.5,242.167 557.5,242.167 556.5,243.5C 541.167,243.5 525.833,243.5 510.5,243.5C 507.642,242.834 504.642,242.167 501.5,241.5C 497.298,231.556 493.298,221.556 489.5,211.5 Z"/></g>
</svg>
